<?xml version="1.0" encoding="utf-8"?>
<!-- Generator: Adobe Illustrator 16.0.0, SVG Export Plug-In . SVG Version: 6.00 Build 0)  -->
<!DOCTYPE svg PUBLIC "-//W3C//DTD SVG 1.1//EN" "http://www.w3.org/Graphics/SVG/1.1/DTD/svg11.dtd">
<svg version="1.1" id="Layer_1" xmlns="http://www.w3.org/2000/svg" xmlns:xlink="http://www.w3.org/1999/xlink" x="0px" y="0px"
	 width="70px" height="70px" viewBox="0 0 70 70" enable-background="new 0 0 70 70" xml:space="preserve">
<g>
	<g>
		<g>
			<path fill="#858585" d="M52.5,0h-35c-3.221,0.004-5.83,2.613-5.834,5.833V59.5c0.004,2.771,1.953,5.158,4.666,5.717V70h7v-4.667
				h23.334V70h7v-4.783c2.715-0.559,4.662-2.946,4.666-5.717V5.833C58.328,2.613,55.719,0.004,52.5,0z M21,67.667h-2.334v-2.334H21
				V67.667z M51.332,67.667H49v-2.334h2.332V67.667z M56,59.5c0,1.933-1.568,3.5-3.5,3.5h-35c-1.934,0-3.5-1.567-3.5-3.5V5.833
				c0-1.933,1.566-3.5,3.5-3.5h35c1.932,0,3.5,1.567,3.5,3.5V59.5z"/>
		</g>
	</g>
	<g>
		<g>
			<path fill="#858585" d="M35,23.333c-10.311,0-18.668,8.357-18.668,18.667C16.346,52.305,24.695,60.654,35,60.667
				c10.309,0,18.666-8.357,18.666-18.667S45.309,23.333,35,23.333z M35,58.333c-9.021,0-16.334-7.312-16.334-16.333
				c0.01-9.017,7.316-16.323,16.334-16.333c9.02,0,16.332,7.313,16.332,16.333C51.332,51.021,44.02,58.333,35,58.333z"/>
		</g>
	</g>
	<g>
		<g>
			<path fill="#858585" d="M35,28c-7.732,0-14,6.269-14,14c0.008,7.729,6.271,13.991,14,14c7.732,0,14-6.269,14-14S42.732,28,35,28z
				 M35,53.667c-6.443,0-11.668-5.224-11.668-11.667C23.34,35.56,28.559,30.34,35,30.333c6.443,0,11.666,5.224,11.666,11.667
				S41.443,53.667,35,53.667z"/>
		</g>
	</g>
	<g>
		<g>
			<path fill="#858585" d="M35,4.667c-4.51,0-8.168,3.656-8.168,8.166C26.838,17.341,30.492,20.995,35,21
				c4.51,0,8.166-3.656,8.166-8.167C43.166,8.323,39.51,4.667,35,4.667z M35,18.667c-3.223,0-5.834-2.612-5.834-5.834
				C29.17,9.613,31.779,7.004,35,7c3.221,0,5.832,2.612,5.832,5.833C40.832,16.055,38.221,18.667,35,18.667z"/>
		</g>
	</g>
	<g>
		<g>
			<path fill="#858585" d="M35,9.333c-1.934,0-3.5,1.567-3.5,3.5c0,1.934,1.566,3.5,3.5,3.5c1.932,0,3.5-1.566,3.5-3.5
				C38.5,10.9,36.932,9.333,35,9.333z M35,14c-0.645,0-1.168-0.521-1.168-1.167c0-0.644,0.523-1.166,1.168-1.166
				s1.166,0.522,1.166,1.166C36.166,13.479,35.645,14,35,14z"/>
		</g>
	</g>
	<g>
		<g>
			<rect x="16.332" y="4.667" fill="#858585" width="2.334" height="2.333"/>
		</g>
	</g>
	<g>
		<g>
			<rect x="51.332" y="4.667" fill="#858585" width="2.334" height="2.333"/>
		</g>
	</g>
	<g>
		<g>
			<rect x="16.332" y="58.333" fill="#858585" width="2.334" height="2.334"/>
		</g>
	</g>
	<g>
		<g>
			<rect x="51.332" y="58.333" fill="#858585" width="2.334" height="2.334"/>
		</g>
	</g>
	<g>
		<g>
			<path fill="#858585" d="M35,36.167c-3.223,0-5.834,2.611-5.834,5.833c0.004,3.22,2.613,5.829,5.834,5.833
				c3.221,0,5.832-2.611,5.832-5.833S38.221,36.167,35,36.167z M35,45.5c-1.934,0-3.5-1.567-3.5-3.5s1.566-3.5,3.5-3.5
				c1.932,0,3.5,1.567,3.5,3.5S36.932,45.5,35,45.5z"/>
		</g>
	</g>
	<g>
		<g>
			<path fill="#858585" d="M7,40.833H2.332c-0.643,0-1.166,0.522-1.166,1.167s0.523,1.167,1.166,1.167H7
				c0.645,0,1.166-0.522,1.166-1.167S7.645,40.833,7,40.833z"/>
		</g>
	</g>
	<g>
		<g>
			<path fill="#858585" d="M7.824,33.009l-3.5-3.5c-0.463-0.447-1.203-0.436-1.65,0.028c-0.436,0.452-0.436,1.169,0,1.621l3.5,3.5
				c0.465,0.447,1.203,0.436,1.65-0.029C8.262,34.178,8.262,33.46,7.824,33.009z"/>
		</g>
	</g>
	<g>
		<g>
			<path fill="#858585" d="M7.795,49.342c-0.451-0.437-1.168-0.437-1.621,0l-3.5,3.5c-0.463,0.447-0.475,1.187-0.027,1.649
				c0.447,0.464,1.186,0.477,1.65,0.028c0.008-0.009,0.018-0.019,0.027-0.028l3.5-3.5C8.271,50.528,8.26,49.789,7.795,49.342z"/>
		</g>
	</g>
	<g>
		<g>
			<path fill="#858585" d="M67.666,40.833H63c-0.645,0-1.168,0.522-1.168,1.167s0.523,1.167,1.168,1.167h4.666
				c0.645,0,1.166-0.522,1.166-1.167S68.311,40.833,67.666,40.833z"/>
		</g>
	</g>
	<g>
		<g>
			<path fill="#858585" d="M67.295,29.509c-0.451-0.438-1.168-0.438-1.621,0l-3.5,3.5c-0.455,0.455-0.455,1.194,0.002,1.65
				C62.393,34.877,62.689,35,63,35c0.309,0,0.605-0.123,0.824-0.342l3.5-3.5C67.771,30.695,67.76,29.956,67.295,29.509z"/>
		</g>
	</g>
	<g>
		<g>
			<path fill="#858585" d="M67.324,52.842l-3.5-3.5c-0.463-0.447-1.201-0.436-1.65,0.028c-0.436,0.452-0.436,1.17,0,1.621l3.5,3.5
				c0.465,0.447,1.203,0.436,1.65-0.027C67.762,54.011,67.762,53.294,67.324,52.842z"/>
		</g>
	</g>
</g>
</svg>
