<?xml version="1.0" encoding="utf-8"?>
<!-- Generator: Adobe Illustrator 16.0.0, SVG Export Plug-In . SVG Version: 6.00 Build 0)  -->
<!DOCTYPE svg PUBLIC "-//W3C//DTD SVG 1.1//EN" "http://www.w3.org/Graphics/SVG/1.1/DTD/svg11.dtd">
<svg version="1.1" id="Layer_1" xmlns="http://www.w3.org/2000/svg" xmlns:xlink="http://www.w3.org/1999/xlink" x="0px" y="0px"
	 width="50px" height="50px" viewBox="0 0 50 50" enable-background="new 0 0 50 50" xml:space="preserve">
<g>
	<path fill-rule="evenodd" clip-rule="evenodd" fill="#056DFF" d="M41.669,40.003c-0.197,0-0.317,0-0.438,0
		c-10.105,0-20.21-0.002-30.314,0.002c-1.77,0.001-2.949,1.537-2.479,3.207c0.283,1.008,1.158,1.701,2.255,1.785
		c0.672,0.053,1.003,0.357,0.969,0.894c-0.034,0.534-0.414,0.805-1.081,0.771c-2.06-0.103-3.792-1.838-3.905-3.91
		c-0.009-0.155-0.009-0.313-0.009-0.469c0-12.639-0.002-25.277,0.001-37.916c0-2.271,1.397-3.958,3.569-4.319
		c0.271-0.045,0.554-0.046,0.83-0.046C20.91,0,30.754,0,40.599,0.001c1.696,0,2.735,1.027,2.736,2.714
		c0.001,13.75,0.001,27.499,0,41.249c-0.001,1.66-1.042,2.704-2.696,2.705c-5.399,0.003-10.8,0.008-16.199-0.015
		c-0.324-0.001-0.747-0.139-0.949-0.367c-0.415-0.47-0.05-1.202,0.579-1.276c0.172-0.02,0.348-0.008,0.521-0.008
		c5.277,0,10.556,0,15.834,0c1.031,0,1.243-0.214,1.244-1.252C41.669,42.522,41.669,41.293,41.669,40.003z M41.669,38.332
		c0-0.212,0-0.364,0-0.518c0-11.685,0-23.368-0.001-35.053c0-0.829-0.262-1.094-1.085-1.094c-9.863-0.001-19.725-0.002-29.586,0
		c-1.641,0-2.662,1.024-2.662,2.671c-0.002,11.441-0.001,22.882,0,34.324c0,0.145,0.021,0.288,0.036,0.499
		c1.003-0.74,2.084-0.84,3.218-0.839c9.774,0.016,19.55,0.009,29.325,0.009C41.139,38.332,41.362,38.332,41.669,38.332z"/>
	<path fill-rule="evenodd" clip-rule="evenodd" fill="#056DFF" d="M13.331,43.336c-0.829,0-1.574,0.005-2.32-0.001
		c-0.626-0.006-0.985-0.307-0.995-0.819c-0.012-0.534,0.354-0.845,1.016-0.845c9.321-0.002,18.641-0.002,27.962,0
		c0.629,0,0.984,0.301,0.993,0.815c0.01,0.532-0.358,0.849-1.019,0.849c-5.536,0.003-11.073,0.001-16.61,0.001
		c-0.206,0-0.413,0-0.691,0c0,0.212,0,0.396,0,0.578c0,1.683-0.005,3.367,0.004,5.05c0.002,0.437-0.104,0.791-0.539,0.971
		c-0.422,0.172-0.733-0.02-1.02-0.309c-0.854-0.859-1.712-1.715-2.615-2.619c-0.884,0.889-1.729,1.754-2.596,2.597
		c-0.178,0.173-0.418,0.335-0.653,0.381c-0.517,0.103-0.911-0.317-0.913-0.929c-0.007-1.701-0.003-3.402-0.003-5.104
		C13.331,43.766,13.331,43.579,13.331,43.336z M19.962,47.154c0-1.357,0-2.573,0-3.777c-1.672,0-3.308,0-4.932,0
		c0,1.243,0,2.445,0,3.832c0.638-0.669,1.164-1.236,1.707-1.786c0.573-0.58,0.957-0.574,1.542,0.014
		C18.817,45.976,19.347,46.524,19.962,47.154z"/>
	<path fill-rule="evenodd" clip-rule="evenodd" fill="#056DFF" d="M17.655,9.167c0.781,0,1.563-0.014,2.343,0.006
		c0.336,0.009,0.579-0.083,0.819-0.33c1.091-1.118,2.202-2.214,3.308-3.319c0.719-0.719,1.037-0.716,1.771,0.018
		c1.08,1.08,2.17,2.151,3.23,3.249c0.279,0.29,0.563,0.389,0.954,0.384c1.562-0.019,3.125-0.01,4.688-0.007
		c0.783,0.001,1.064,0.282,1.066,1.065c0.003,1.579,0.015,3.159-0.009,4.738c-0.005,0.383,0.117,0.64,0.386,0.901
		c1.081,1.053,2.142,2.128,3.21,3.194c0.788,0.787,0.791,1.072,0.02,1.845c-1.092,1.092-2.177,2.193-3.281,3.271
		c-0.246,0.24-0.334,0.484-0.331,0.818c0.016,1.597,0.01,3.192,0.006,4.79c-0.002,0.744-0.296,1.039-1.042,1.041
		c-1.579,0.006-3.159,0.013-4.738-0.005c-0.372-0.005-0.644,0.089-0.91,0.364c-1.063,1.096-2.152,2.168-3.231,3.247
		c-0.774,0.774-1.053,0.771-1.842-0.02c-1.066-1.069-2.146-2.124-3.195-3.21c-0.28-0.291-0.564-0.387-0.955-0.382
		c-1.562,0.019-3.124,0.011-4.686,0.006c-0.781-0.002-1.065-0.288-1.067-1.069c-0.003-1.58-0.012-3.159,0.007-4.737
		c0.005-0.357-0.092-0.611-0.35-0.863c-1.116-1.092-2.214-2.204-3.317-3.309c-0.701-0.702-0.696-1.015,0.02-1.73
		c1.079-1.08,2.152-2.167,3.246-3.232c0.279-0.273,0.409-0.545,0.403-0.947c-0.023-1.579-0.012-3.158-0.008-4.737
		c0.001-0.748,0.293-1.037,1.041-1.04C16.024,9.164,16.84,9.167,17.655,9.167z M34.168,10.834c-1.478,0-2.899-0.039-4.317,0.016
		c-0.743,0.028-1.275-0.199-1.777-0.743c-0.975-1.054-2.013-2.05-3.044-3.09c-0.172,0.16-0.3,0.271-0.42,0.391
		c-0.971,0.968-1.951,1.928-2.905,2.913c-0.351,0.362-0.726,0.533-1.238,0.523c-1.371-0.027-2.742-0.01-4.114-0.01
		c-0.165,0-0.33,0-0.519,0c0,1.622-0.012,3.166,0.008,4.709c0.005,0.453-0.139,0.792-0.462,1.104
		c-0.738,0.71-1.445,1.453-2.182,2.165c-0.394,0.382-0.822,0.729-1.272,1.127c1.232,1.223,2.333,2.329,3.451,3.417
		c0.32,0.313,0.481,0.648,0.464,1.104c-0.026,0.729-0.007,1.459-0.007,2.187c0,0.827,0,1.654,0,2.523
		c1.496,0,2.935,0.034,4.37-0.016c0.704-0.023,1.209,0.193,1.688,0.704c0.992,1.062,2.041,2.069,3.087,3.12
		c0.168-0.156,0.295-0.268,0.415-0.387c1.008-1.006,1.998-2.031,3.033-3.006c0.237-0.224,0.628-0.388,0.953-0.397
		c1.405-0.044,2.813-0.019,4.22-0.019c0.182,0,0.364,0,0.569,0c0-1.621,0.013-3.165-0.007-4.708
		c-0.006-0.455,0.143-0.791,0.464-1.104c0.858-0.834,1.693-1.693,2.545-2.536c0.268-0.266,0.56-0.506,0.86-0.775
		c-1.182-1.182-2.264-2.283-3.368-3.36c-0.349-0.339-0.51-0.699-0.502-1.192C34.184,13.967,34.168,12.44,34.168,10.834z"/>
	<path fill-rule="evenodd" clip-rule="evenodd" fill="#056DFF" d="M24.125,27.499c-3.333,0-6.098-2.483-6.583-5.913
		c-0.437-3.082,1.68-6.234,4.764-7.121c0.459-0.132,0.852-0.147,1.162,0.272c0.313,0.421,0.115,0.763-0.142,1.128
		c-0.997,1.42-1.128,2.936-0.303,4.459c0.815,1.506,2.15,2.214,3.86,2.167c0.835-0.023,1.594-0.314,2.26-0.823
		c0.357-0.271,0.72-0.441,1.137-0.153c0.434,0.3,0.408,0.711,0.277,1.162C29.728,25.543,27.123,27.499,24.125,27.499z
		 M27.864,24.059c-2.051,0.34-3.849-0.156-5.31-1.615c-1.46-1.46-1.948-3.257-1.614-5.31c-1.327,0.871-2.035,2.943-1.66,4.767
		c0.394,1.916,2.021,3.504,3.935,3.836C25.04,26.052,27.078,25.328,27.864,24.059z"/>
	<path fill-rule="evenodd" clip-rule="evenodd" fill="#056DFF" d="M29.697,16.283c0.274,0.384,0.535,0.73,0.775,1.089
		c0.302,0.45,0.229,0.902-0.172,1.187c-0.416,0.294-0.821,0.22-1.176-0.222c-0.13-0.163-0.247-0.335-0.369-0.504
		c-0.123-0.166-0.246-0.333-0.416-0.563c-0.262,0.353-0.499,0.679-0.744,1.001c-0.38,0.496-0.824,0.586-1.25,0.26
		c-0.398-0.305-0.438-0.749-0.1-1.239c0.226-0.327,0.463-0.646,0.726-1.012c-0.426-0.144-0.816-0.268-1.202-0.408
		c-0.541-0.196-0.778-0.615-0.622-1.078c0.151-0.448,0.569-0.654,1.1-0.513c0.398,0.106,0.788,0.247,1.254,0.395
		c0-0.458-0.009-0.866,0.002-1.274c0.015-0.567,0.35-0.917,0.851-0.904c0.478,0.012,0.793,0.352,0.81,0.897
		c0.013,0.397,0.003,0.796,0.003,1.274c0.36-0.11,0.679-0.205,0.997-0.305c0.743-0.236,1.159-0.105,1.345,0.425
		c0.184,0.523-0.09,0.913-0.804,1.15C30.38,16.048,30.056,16.161,29.697,16.283z"/>
</g>
</svg>
