<?xml version="1.0" encoding="utf-8"?>
<!-- Generator: Adobe Illustrator 16.0.0, SVG Export Plug-In . SVG Version: 6.00 Build 0)  -->
<!DOCTYPE svg PUBLIC "-//W3C//DTD SVG 1.1//EN" "http://www.w3.org/Graphics/SVG/1.1/DTD/svg11.dtd">
<svg version="1.1" id="Layer_1" xmlns="http://www.w3.org/2000/svg" xmlns:xlink="http://www.w3.org/1999/xlink" x="0px" y="0px"
	 width="200px" height="73px" viewBox="0 0 200 73" enable-background="new 0 0 200 73" xml:space="preserve">
<g>
	<g>
		<g>
			<path fill="#FFCA2A" d="M197.297,29.489c-0.462-1.579-1.629-2.64-3.184-2.858l-0.332-0.034c-1.924-0.161-3.759,0.226-5.236,1.091
				c-0.646,0.377-1.233,0.877-1.714,1.456l-5.729,0.004c-0.062-0.009-0.201-0.048-0.162-0.024c-0.441-0.262-4.412-2.564-8.018-2.564
				c-3.967,0-7.775,2.301-8.132,2.53c-0.038,0.015-0.117,0.039-0.168,0.054l-34.745,0c-0.067-0.006-0.303-0.063-0.339-0.075
				c-0.748-0.378-4.638-2.266-7.881-2.266c-3.734,0-7.466,2.06-7.832,2.271c-0.049,0.019-0.223,0.065-0.207,0.069h-12.07
				c-1.415,0-3.019,0.629-3.992,1.566c-0.369,0.353-0.997,0.975-1.394,1.381c-0.128,0.131-1.283,1.319-2.273,2.721
				c-0.998,1.411-1.878,2.998-2.618,4.72c-0.726,1.689-1.322,3.512-1.771,5.412c-0.465,1.971-0.701,4.007-0.701,6.055
				c0,2.613,0.449,5.236,1.334,7.796c0.895,2.594,3.326,5.822,3.806,6.444c0.548,0.707,1.484,1.579,2.226,2.074
				c0.375,0.25,2.349,1.494,4.451,1.494c1.577,0,3.042-0.402,4.267-1.169c0.533,0.428,1.129,0.792,1.776,1.086
				c1.111,0.499,2.158,0.632,2.457,0.66c0.146,0.013,0.288,0.02,0.426,0.02c1.269,0,2.447-0.538,3.231-1.473
				c0.672-0.801,1.018-1.872,0.926-2.82v-0.273c0-0.353,0.077-0.679,0.235-1.002c0.176-0.362,0.421-0.673,0.747-0.945
				c0.374-0.313,0.859-0.574,1.445-0.775c1.568-0.541,3.827-0.331,5.719,0.535c0.917,0.42,3.005,1.891,4.127,2.753
				c1.019,0.783,2.554,1.31,3.818,1.31c0.721,0,1.816-0.104,2.55-0.243c0.325-0.061,2.021-0.438,3.385-1.843
				c1.341-1.374,1.704-3.045,1.764-3.366c0.134-0.727,0.233-1.831,0.233-2.568v-3.45l2.014,1.4l0.726,0.293
				c0.315,0.093,1.422,0.398,2.415,0.398c0.001,0,0.001,0,0.001,0l0.175-0.006c0.617-0.028,1.518-0.202,2.099-0.343
				c0.245-0.058,1.525-0.383,2.698-1.21c0.153-0.109,0.305-0.224,0.454-0.341c0.044,0.173,0.094,0.346,0.146,0.517
				c0.36,1.175,0.916,2.103,1.081,2.362c0.411,0.642,0.747,1.107,0.986,1.368l0.272,0.326c0.464,0.562,1.091,1.166,1.918,1.85
				c0.813,0.671,1.827,1.341,3.015,1.994c1.29,0.708,2.808,1.254,4.519,1.623c1.381,0.281,2.722,0.494,3.99,0.633
				c1.321,0.144,2.566,0.216,3.707,0.216c3.572,0,6.725-0.672,9.371-1.996c2.593-1.299,4.768-2.998,6.465-5.051
				c0.491-0.595,0.948-1.217,1.365-1.86v4.54c0,2.559,1.639,4.415,3.898,4.415c0.761,0,1.926-0.214,2.061-0.238
				c0.403-0.077,2.497-0.536,4.047-2.061c1.577-1.547,2.047-3.651,2.126-4.058c0.14-0.731,0.245-1.846,0.245-2.591V38.001
				c1.498-0.736,2.484-2.29,2.484-3.969v-0.474C200,31.778,198.924,30.175,197.297,29.489z M174.087,50.09
				c-0.338,0.304-0.705,0.594-1.098,0.867c-0.771,0.538-1.631,0.98-2.558,1.315c-1.706,0.613-3.525,0.597-5.005-0.042
				c-0.83-0.358-1.553-0.826-2.148-1.391c-0.59-0.559-1.041-1.175-1.38-1.885c-0.287-0.601-0.433-1.186-0.444-1.783
				c0.155,0.209,0.317,0.412,0.484,0.607c0.945,1.096,2.072,1.944,3.348,2.519c1.266,0.576,2.65,0.867,4.113,0.867
				c1.608,0,3.106-0.323,4.454-0.963C173.932,50.165,174.01,50.128,174.087,50.09z M159.449,42.611
				c-0.634-0.368-1.369-0.567-2.145-0.567h-0.001l-0.376,0.018c-0.29,0.025-1.8,0.187-3.126,0.788
				c-0.76,0.344-1.458,0.764-2.085,1.251c-0.464-2.029-1.41-3.924-2.823-5.653h10.325c-0.035,0.411-0.052,0.827-0.052,1.243
				C159.167,40.718,159.262,41.695,159.449,42.611z M125.445,48.412v3.266c-1.046-0.644-1.942-1.131-2.678-1.453
				C123.763,49.747,124.66,49.14,125.445,48.412z M103.106,54.524c-0.075-0.104-0.146-0.208-0.216-0.314
				c-0.55-0.824-1-1.746-1.339-2.742c-0.314-0.917-0.473-1.895-0.473-2.907c0-1.26,0.167-2.469,0.495-3.594
				c0.37-1.266,0.802-2.418,1.285-3.424c0.491-1.022,0.988-1.894,1.475-2.591l0.356-0.505h3.383
				c-0.048,0.513-0.071,1.028-0.071,1.537c0,1.582,0.235,3.062,0.702,4.396c0.485,1.39,1.186,2.608,2.081,3.625
				c0.251,0.285,0.515,0.554,0.794,0.804c-0.903,0.192-1.766,0.472-2.573,0.834c-1.571,0.704-2.517,1.393-2.618,1.468
				c-0.488,0.36-1.157,0.892-1.555,1.269l-0.171,0.17c-0.563,0.418-0.907,0.951-1.424,1.761
				C103.208,54.354,103.163,54.426,103.106,54.524z"/>
			<path fill="#FFCA2A" d="M89.66,33.559c0-1.78-1.076-3.384-2.703-4.07c-0.461-1.578-1.63-2.64-3.187-2.861l-0.327-0.031
				c-1.915-0.167-3.747,0.218-5.239,1.092c-0.083,0.049-0.166,0.1-0.247,0.152v-8.469c0-0.098-0.003-0.195-0.007-0.231l-0.002-6.367
				c0.087-1.554-0.662-2.951-1.93-3.646c-0.006-0.224-0.03-0.381-0.061-0.563l-0.019-0.108c-0.165-1.025-0.872-1.978-1.869-2.498
				c-0.636-0.29-1.444-0.374-1.905-0.397C71.5,5.525,70.689,5.526,70.01,5.559h-0.179c-0.2,0-0.4,0.013-0.524,0.032
				c-0.572-0.513-1.192-1-1.845-1.447c-1.587-1.083-3.38-1.715-5.191-1.827c-2.311-0.126-4.708,0.817-6.66,2.624
				c-1.077,0.995-2.016,2.254-2.796,3.749H12.591c-0.135,0-0.268,0.004-0.424,0.019c-0.892,0.089-1.615,0.396-2.347,0.999
				c-0.978,0.808-1.195,1.923-1.273,2.693c-0.021,0.22-0.019,0.436-0.005,0.553L8.541,25.845l-0.009,0.63h0.025
				c0.096,1.252,0.652,2.429,1.553,3.309c-0.519,0.253-0.984,0.57-1.353,0.925c-0.369,0.353-0.997,0.976-1.379,1.365
				c-0.011,0.012-1.25,1.265-2.289,2.734c-0.996,1.41-1.876,2.998-2.618,4.723c-0.726,1.688-1.322,3.511-1.771,5.413
				C0.236,46.917,0,48.954,0,50.997c0,2.612,0.448,5.236,1.333,7.796c0.897,2.6,3.327,5.824,3.805,6.444
				c0.549,0.708,1.485,1.579,2.227,2.074c0.526,0.351,2.404,1.494,4.451,1.494c2.337,0,4.336-0.845,5.783-2.442
				c1.306-1.437,1.847-3.412,1.943-3.794c0.004-0.02,0.009-0.039,0.014-0.059c0.059,0.027,0.117,0.056,0.177,0.082
				c1.467,0.662,3.132,0.999,4.947,0.999c1.608,0,3.175-0.231,4.655-0.686c1.568-0.477,3.026-1.238,4.333-2.262
				c1.152-0.901,2.167-2.014,3.022-3.313c0.463,0.89,0.892,2.245,1.037,2.813c0.063,0.246,0.136,0.837,0.136,1.091v0.377
				c0,2.435,1.974,4.415,4.4,4.415c0.739,0,1.852-0.108,2.593-0.253c0.3-0.06,1.868-0.424,3.22-1.757
				c1.38-1.357,1.758-3.005,1.819-3.323c0.039-0.203,0.076-0.438,0.108-0.688c0.223,0.297,0.454,0.582,0.692,0.853
				c1.098,1.256,2.327,2.296,3.658,3.1l-0.548,0.992c-1.133,2.053-0.471,4.624,1.603,6.019l2.575,1.216l0.543,0.176
				c1.143,0.254,1.439,0.295,1.804,0.295c0.184,0,0.933-0.065,1.525-0.129l2.01-0.357l0.247-0.059
				c1.996-0.563,3.445-2.479,3.445-4.554v-1.529c0.06-0.011,0.119-0.021,0.177-0.031c1.371-0.253,2.643-0.61,3.781-1.063
				c1.257-0.498,2.367-1.131,3.298-1.884c0.027-0.021,0.053-0.043,0.08-0.063c0.378,2.01,1.863,3.383,3.804,3.383
				c0.76,0,1.926-0.214,2.06-0.238c0.404-0.077,2.498-0.536,4.048-2.061c1.581-1.55,2.047-3.653,2.125-4.06
				c0.139-0.729,0.245-1.843,0.245-2.589v-19.42c1.5-0.735,2.485-2.29,2.485-3.97V33.559z M54.227,38.447
				c-1.636,1.027-3.003,2.158-4.087,3.38v-3.38H54.227z M57.865,50.333c0.01-0.021,1.082-2.089,2.641-2.988
				c0.806-0.465,2.512-1.062,4.841-1.693v7.293c-0.069,0.014-0.131,0.024-0.183,0.031c-0.48,0.063-0.729,0.09-0.822,0.101
				c-0.479,0.021-1.037,0.041-1.239,0.041c-0.19,0-0.713-0.027-1.16-0.058c-0.3-0.02-1.121-0.114-1.603-0.259
				c-0.654-0.197-1.207-0.456-1.644-0.77c-0.341-0.244-0.592-0.514-0.767-0.824c-0.047-0.085-0.092-0.234-0.097-0.241
				c-0.02-0.165-0.037-0.326-0.048-0.465C57.811,50.446,57.837,50.389,57.865,50.333z M37.862,38.447v2.17
				c-0.26-0.652-0.565-1.287-0.918-1.85c-0.065-0.104-0.135-0.211-0.208-0.32H37.862z M13.773,46.591
				c-0.571,1.411-0.86,2.992-0.86,4.697c0,0.223,0.004,0.444,0.014,0.664c-0.062-0.159-0.12-0.32-0.176-0.484
				c-0.314-0.917-0.474-1.895-0.474-2.907c0-1.261,0.167-2.469,0.496-3.594c0.368-1.259,0.8-2.411,1.285-3.424
				c0.489-1.02,0.986-1.891,1.476-2.591c0.137-0.198,0.255-0.365,0.354-0.505l2.749-0.002c0.062,0.008,0.271,0.06,0.298,0.067
				c0.528,0.274,1.487,0.804,2.406,1.352c-0.587,0.141-1.161,0.331-1.716,0.567c-1.348,0.578-2.542,1.418-3.549,2.497
				C15.108,43.968,14.333,45.199,13.773,46.591z"/>
		</g>
	</g>
	<g>
		<path fill="#FFE32A" d="M197.297,27.526c-0.462-1.579-1.629-2.64-3.184-2.858l-0.332-0.034c-1.924-0.161-3.759,0.225-5.236,1.091
			c-0.646,0.377-1.233,0.877-1.714,1.456l-5.729,0.004c-0.062-0.009-0.201-0.048-0.162-0.024c-0.441-0.262-4.412-2.564-8.018-2.564
			c-3.967,0-7.775,2.301-8.132,2.53c-0.038,0.015-0.117,0.039-0.168,0.054l-34.745,0c-0.067-0.006-0.303-0.063-0.339-0.075
			c-0.748-0.378-4.638-2.266-7.881-2.266c-3.734,0-7.466,2.059-7.832,2.271c-0.049,0.019-0.223,0.065-0.207,0.069h-12.07
			c-1.415,0-3.019,0.629-3.992,1.565c-0.369,0.353-0.997,0.975-1.394,1.381c-0.128,0.132-1.283,1.319-2.273,2.722
			c-0.998,1.41-1.878,2.998-2.618,4.719c-0.726,1.69-1.322,3.512-1.771,5.413c-0.465,1.97-0.701,4.006-0.701,6.054
			c0,2.614,0.449,5.237,1.334,7.796c0.895,2.594,3.326,5.822,3.806,6.445c0.548,0.706,1.484,1.578,2.226,2.073
			c0.375,0.25,2.349,1.495,4.451,1.495c1.577,0,3.042-0.402,4.267-1.169c0.533,0.427,1.129,0.791,1.776,1.086
			c1.111,0.499,2.158,0.631,2.457,0.66c0.146,0.012,0.288,0.019,0.426,0.019c1.269,0,2.447-0.537,3.231-1.473
			c0.672-0.8,1.018-1.871,0.926-2.82v-0.272c0-0.353,0.077-0.68,0.235-1.003c0.176-0.361,0.421-0.672,0.747-0.945
			c0.374-0.313,0.859-0.574,1.445-0.775c1.568-0.54,3.827-0.33,5.719,0.536c0.917,0.419,3.005,1.891,4.127,2.753
			c1.019,0.782,2.554,1.309,3.818,1.309c0.721,0,1.816-0.104,2.55-0.242c0.325-0.062,2.021-0.439,3.385-1.843
			c1.341-1.374,1.704-3.045,1.764-3.366c0.134-0.728,0.233-1.831,0.233-2.569v-3.449l2.014,1.4l0.726,0.293
			c0.315,0.093,1.422,0.397,2.415,0.397c0.001,0,0.001,0,0.001,0l0.175-0.006c0.617-0.027,1.518-0.202,2.099-0.342
			c0.245-0.058,1.525-0.384,2.698-1.21c0.153-0.109,0.305-0.224,0.454-0.342c0.044,0.174,0.094,0.346,0.146,0.517
			c0.36,1.175,0.916,2.104,1.081,2.363c0.411,0.641,0.747,1.106,0.986,1.368l0.272,0.326c0.464,0.562,1.091,1.166,1.918,1.849
			c0.813,0.671,1.827,1.342,3.015,1.994c1.29,0.708,2.808,1.255,4.519,1.623c1.381,0.282,2.722,0.495,3.99,0.634
			c1.321,0.143,2.566,0.216,3.707,0.216c3.572,0,6.725-0.672,9.371-1.996c2.593-1.3,4.768-2.998,6.465-5.051
			c0.491-0.595,0.948-1.217,1.365-1.861v4.54c0,2.559,1.639,4.416,3.898,4.416c0.761,0,1.926-0.214,2.061-0.239
			c0.403-0.076,2.497-0.535,4.047-2.06c1.577-1.548,2.047-3.652,2.126-4.059c0.14-0.73,0.245-1.845,0.245-2.591V36.038
			c1.498-0.735,2.484-2.29,2.484-3.969v-0.474C200,29.815,198.924,28.212,197.297,27.526z"/>
		<path fill="#FFE32A" d="M89.66,31.596c0-1.78-1.076-3.383-2.703-4.069c-0.461-1.578-1.63-2.64-3.187-2.861l-0.327-0.031
			c-1.915-0.167-3.747,0.218-5.239,1.092c-0.083,0.049-0.166,0.1-0.247,0.152V17.41c0-0.098-0.003-0.195-0.007-0.231l-0.002-6.367
			c0.087-1.555-0.662-2.951-1.93-3.646c-0.006-0.223-0.03-0.38-0.061-0.563l-0.019-0.108c-0.165-1.025-0.872-1.978-1.869-2.498
			c-0.636-0.29-1.444-0.374-1.905-0.397C71.5,3.563,70.689,3.563,70.01,3.596h-0.179c-0.2,0-0.4,0.014-0.524,0.033
			c-0.572-0.513-1.192-1-1.845-1.447c-1.587-1.084-3.38-1.715-5.191-1.827c-2.311-0.126-4.708,0.817-6.66,2.624
			c-1.077,0.995-2.016,2.254-2.796,3.749H12.591c-0.135,0-0.268,0.004-0.424,0.019c-0.892,0.089-1.615,0.396-2.347,0.999
			c-0.978,0.808-1.195,1.923-1.273,2.693c-0.021,0.22-0.019,0.436-0.005,0.553L8.541,23.882l-0.009,0.63h0.025
			c0.096,1.252,0.652,2.429,1.553,3.309c-0.519,0.253-0.984,0.57-1.353,0.925c-0.369,0.353-0.997,0.976-1.379,1.366
			c-0.011,0.011-1.25,1.265-2.289,2.734c-0.996,1.409-1.876,2.998-2.618,4.722c-0.726,1.689-1.322,3.511-1.771,5.414
			C0.236,44.954,0,46.991,0,49.034c0,2.613,0.448,5.237,1.333,7.796c0.897,2.6,3.327,5.824,3.805,6.445
			c0.549,0.707,1.485,1.579,2.227,2.073c0.526,0.351,2.404,1.495,4.451,1.495c2.337,0,4.336-0.845,5.783-2.442
			c1.306-1.438,1.847-3.412,1.943-3.795c0.004-0.019,0.009-0.039,0.014-0.059c0.059,0.028,0.117,0.056,0.177,0.083
			c1.467,0.662,3.132,0.998,4.947,0.998c1.608,0,3.175-0.23,4.655-0.685c1.568-0.478,3.026-1.238,4.333-2.262
			c1.152-0.901,2.167-2.015,3.022-3.313c0.463,0.89,0.892,2.245,1.037,2.813c0.063,0.246,0.136,0.836,0.136,1.09v0.377
			c0,2.435,1.974,4.415,4.4,4.415c0.739,0,1.852-0.107,2.593-0.253c0.3-0.059,1.868-0.423,3.22-1.756
			c1.38-1.358,1.758-3.005,1.819-3.323c0.039-0.203,0.076-0.438,0.108-0.688c0.223,0.297,0.454,0.581,0.692,0.853
			c1.098,1.255,2.327,2.296,3.658,3.099l-0.548,0.993c-1.133,2.052-0.471,4.624,1.603,6.019l2.575,1.216l0.543,0.175
			c1.143,0.254,1.439,0.295,1.804,0.295c0.184,0,0.933-0.064,1.525-0.129l2.01-0.357l0.247-0.059
			c1.996-0.563,3.445-2.479,3.445-4.554v-1.529c0.06-0.01,0.119-0.02,0.177-0.031c1.371-0.253,2.643-0.61,3.781-1.063
			c1.257-0.498,2.367-1.132,3.298-1.884c0.027-0.021,0.053-0.043,0.08-0.064c0.378,2.011,1.863,3.384,3.804,3.384
			c0.76,0,1.926-0.214,2.06-0.239c0.404-0.076,2.498-0.535,4.048-2.06c1.581-1.551,2.047-3.654,2.125-4.061
			c0.139-0.729,0.245-1.842,0.245-2.589v-19.42c1.5-0.734,2.485-2.29,2.485-3.97V31.596z"/>
	</g>
	<g>
		<path fill="#FFEFA1" d="M86.125,28.364c-0.25-1.454-1.158-2.449-2.448-2.633l-0.317-0.03c-1.717-0.147-3.352,0.196-4.659,0.961
			c-0.863,0.505-1.415,1.146-1.724,1.589v-4.038v-2.925v-3.789c0-0.077-0.002-0.152-0.007-0.231v-6.423
			c0.078-1.384-0.681-2.56-1.931-2.943V7.349c0-0.21-0.022-0.343-0.048-0.495l-0.02-0.117c-0.146-0.909-0.931-1.756-1.826-1.972
			l-0.006,0.024V4.787l0.005-0.022c-0.001,0-0.05-0.01-0.05-0.01c-0.024-0.006-0.048-0.01-0.073-0.013
			c-0.222-0.04-0.49-0.079-0.778-0.079c-0.044,0-0.087,0.002-0.13,0.002C71.79,4.649,71.445,4.64,71.085,4.64
			c-0.35,0-0.711,0.009-1.075,0.026h-0.179c-0.17,0-0.341,0.012-0.502,0.039L68.96,4.731c-0.628-0.595-1.318-1.149-2.051-1.651
			c-1.44-0.984-3.063-1.558-4.688-1.659c-0.135-0.007-0.272-0.013-0.408-0.013c-1.911,0-3.876,0.843-5.535,2.377
			c-1.053,0.973-1.972,2.232-2.728,3.748c0,0-0.099,0.199-0.131,0.262H12.591c-0.104,0-0.208,0.002-0.326,0.013
			c-0.7,0.071-1.244,0.306-1.82,0.78c-0.701,0.579-0.861,1.437-0.921,2.032c-0.016,0.155-0.013,0.308,0,0.457v6.419v6.415
			c-0.001,0.062-0.004,0.125-0.003,0.19c0.001,0.031,0.002,0.061,0.003,0.092v0.017c0,1.931,1.32,3.552,3.097,4.051
			c-1.147,0.036-2.411,0.535-3.186,1.281c-0.362,0.347-0.98,0.959-1.371,1.357c-0.012,0.012-1.189,1.206-2.174,2.6
			c-0.957,1.354-1.803,2.883-2.517,4.543c-0.704,1.637-1.282,3.403-1.717,5.251c-0.447,1.898-0.674,3.858-0.674,5.827
			c0,2.505,0.431,5.021,1.279,7.477c0.847,2.453,3.191,5.563,3.653,6.163c0.491,0.634,1.33,1.415,1.995,1.859
			c0.469,0.312,2.138,1.329,3.907,1.329c2.051,0,3.8-0.732,5.057-2.12c1.15-1.267,1.632-3.03,1.717-3.371
			c0.119-0.479,0.13-0.979,0.048-1.465c0.471,0.313,0.971,0.59,1.499,0.83c1.34,0.605,2.868,0.912,4.543,0.912
			c1.51,0,2.98-0.217,4.37-0.644c1.454-0.442,2.804-1.147,4.013-2.095c1.201-0.939,2.243-2.13,3.097-3.536
			c0.147-0.243,0.297-0.525,0.448-0.841c0.269,0.331,0.494,0.633,0.672,0.902c0.668,1.006,1.248,2.917,1.398,3.508
			c0.083,0.323,0.166,0.995,0.166,1.331v0.376c0,1.894,1.533,3.435,3.418,3.435c0.686,0,1.717-0.101,2.402-0.233
			c0.252-0.051,1.569-0.356,2.723-1.494c1.176-1.156,1.492-2.541,1.543-2.808c0.13-0.68,0.229-1.714,0.229-2.407v-1.406
			c0.634,1.336,1.396,2.515,2.274,3.516c1.114,1.272,2.366,2.307,3.724,3.077c0.175,0.099,0.351,0.194,0.528,0.286l-1.021,1.848
			c-0.869,1.575-0.387,3.604,1.164,4.658l2.462,1.17l0.448,0.149c1.163,0.26,1.354,0.272,1.591,0.272c0.102,0,0.73-0.05,1.354-0.114
			l1.955-0.346l0.207-0.049c1.583-0.446,2.731-1.965,2.731-3.608v-2.373c0.333-0.044,0.661-0.095,0.98-0.153
			c1.304-0.24,2.515-0.579,3.598-1.01c1.166-0.462,2.189-1.045,3.043-1.734c0.92-0.742,1.352-1.384,1.461-1.561
			c0.043-0.07,0.085-0.139,0.122-0.196v1.424c0,1.99,1.227,3.434,2.917,3.434c0.686,0,1.828-0.212,1.877-0.221
			c0.355-0.067,2.195-0.471,3.543-1.797c1.371-1.346,1.78-3.188,1.848-3.544c0.13-0.678,0.228-1.712,0.228-2.405V35.459
			c1.443-0.418,2.486-1.77,2.486-3.302v-0.473C88.679,30.125,87.604,28.759,86.125,28.364z M20.012,39.46
			c-1.219,0.522-2.302,1.283-3.217,2.264c-0.886,0.95-1.597,2.081-2.112,3.361c-0.523,1.293-0.789,2.75-0.789,4.329
			c0,1.504,0.234,2.938,0.696,4.264c0.18,0.52,0.394,1.019,0.642,1.495c-0.723-0.655-1.381-1.427-1.96-2.294
			c-0.595-0.895-1.083-1.893-1.45-2.967c-0.349-1.02-0.526-2.105-0.526-3.227c0-1.352,0.18-2.654,0.535-3.867
			c0.383-1.313,0.835-2.517,1.342-3.575c0.511-1.063,1.035-1.981,1.555-2.727c0.317-0.454,0.53-0.751,0.656-0.925h3.295
			c0.145,0,0.583,0.108,0.711,0.177c0.796,0.416,3.326,1.808,4.458,2.694c0.092,0.072,0.183,0.145,0.273,0.217
			C22.75,38.634,21.314,38.902,20.012,39.46z M24.653,52.682c-0.162-0.016-0.435-0.049-0.737-0.103
			c-0.375-0.066-1.109-0.336-1.351-0.568c-0.146-0.152-0.55-1.091-0.744-2.023c-0.063-0.316-0.122-0.633-0.143-0.717
			c0.011-0.179,0.038-0.505,0.053-0.756c0.018-0.063,0.053-0.159,0.108-0.299c0.138-0.338,0.309-0.634,0.509-0.879
			c0.151-0.183,0.322-0.324,0.524-0.432l0.021-0.012c0.13,0.003,0.254,0.012,0.361,0.022c0.019,0.268,0.026,0.479,0.024,0.542
			c-0.036,0.668,0.105,1.818,0.111,1.868c0.032,0.26,0.249,1.618,1.33,2.834c0.127,0.144,0.261,0.281,0.403,0.415
			C24.933,52.622,24.767,52.658,24.653,52.682z M38.844,44.279l-0.646-0.465c-0.142-0.898-0.743-4.266-2.085-6.4
			c-0.333-0.53-0.789-1.141-1.36-1.822h4.091V44.279z M49.864,41.9c-0.258,0.382-0.493,0.776-0.705,1.182v-7.49h9.032
			c-0.723,0.322-1.437,0.672-2.136,1.048C53.283,38.155,51.2,39.925,49.864,41.9z M66.329,51.832
			c-0.438,0.126-0.811,0.214-1.035,0.242c-0.638,0.084-0.881,0.105-0.909,0.107c-0.496,0.022-1.072,0.043-1.281,0.043
			c-0.201,0-0.753-0.028-1.228-0.06c-0.299-0.021-1.21-0.116-1.818-0.299c-0.758-0.229-1.408-0.535-1.934-0.911
			c-0.458-0.33-0.801-0.702-1.048-1.14c-0.141-0.25-0.209-0.564-0.216-0.604c-0.036-0.288-0.059-0.562-0.07-0.74
			c0.046-0.123,0.116-0.288,0.199-0.457c0.011-0.022,1.193-2.337,3.026-3.394c1.389-0.802,4.532-1.665,6.313-2.115V51.832z"/>
		<path fill="#FFEFA1" d="M196.465,28.364c-0.251-1.454-1.158-2.449-2.449-2.632L193.7,25.7c-1.72-0.145-3.354,0.194-4.659,0.96
			c-0.864,0.506-1.416,1.147-1.726,1.59h-6.303c-0.112-0.003-0.479-0.104-0.574-0.157c-0.418-0.249-4.179-2.426-7.517-2.426
			c-3.677,0-7.308,2.185-7.704,2.43c-0.092,0.053-0.433,0.149-0.531,0.153h-34.846c-0.151,0-0.611-0.11-0.746-0.179
			c-0.435-0.221-4.344-2.161-7.438-2.161c-3.473,0-7.018,1.952-7.409,2.174c-0.104,0.059-0.51,0.165-0.63,0.166h-12.07
			c-1.178,0-2.509,0.519-3.314,1.294c-0.362,0.347-0.98,0.959-1.372,1.359c-0.123,0.126-1.231,1.266-2.172,2.599
			c-0.957,1.354-1.803,2.882-2.517,4.541c-0.704,1.639-1.282,3.405-1.717,5.252c-0.448,1.896-0.675,3.855-0.675,5.827
			c0,2.505,0.431,5.021,1.28,7.477c0.845,2.45,3.19,5.563,3.653,6.163c0.491,0.634,1.33,1.415,1.995,1.859
			c0.333,0.222,2.089,1.329,3.906,1.329c1.674,0,3.164-0.496,4.336-1.438c0.594,0.59,1.301,1.074,2.109,1.441
			c1.008,0.454,1.962,0.561,2.142,0.578c0.116,0.011,0.229,0.016,0.339,0.016c0.978,0,1.882-0.409,2.479-1.123
			c0.521-0.62,0.769-1.413,0.697-2.188v-0.273c0-0.505,0.108-0.974,0.334-1.433c0.239-0.49,0.565-0.904,0.998-1.268
			c0.468-0.391,1.059-0.71,1.756-0.95c1.85-0.637,4.26-0.431,6.447,0.569c1.053,0.482,3.206,2.016,4.316,2.868
			c0.861,0.661,2.155,1.106,3.221,1.106c0.669,0,1.687-0.098,2.367-0.226c0.275-0.052,1.704-0.37,2.865-1.563
			c1.145-1.173,1.451-2.589,1.501-2.859c0.123-0.675,0.217-1.702,0.217-2.391v-5.328l3.556,2.474l0.443,0.157
			c0.557,0.164,1.44,0.356,2.112,0.356l0.154-0.003c0.511-0.024,1.332-0.178,1.92-0.318c0.217-0.051,1.345-0.343,2.355-1.057
			c0.632-0.448,1.188-0.959,1.659-1.525c0.072,0.743,0.222,1.483,0.446,2.215c0.336,1.096,0.864,1.956,0.968,2.119
			c0.382,0.596,0.694,1.027,0.914,1.27l0.276,0.331c0.424,0.514,1.008,1.075,1.786,1.717c0.767,0.633,1.729,1.269,2.861,1.891
			c1.209,0.664,2.635,1.176,4.243,1.521c1.338,0.274,2.65,0.483,3.899,0.62c1.28,0.14,2.491,0.21,3.602,0.21
			c3.42,0,6.426-0.637,8.933-1.893c2.47-1.236,4.538-2.852,6.146-4.798c1.323-1.604,2.364-3.383,3.104-5.304v8.608
			c0,1.99,1.227,3.434,2.917,3.434c0.686,0,1.827-0.212,1.877-0.221c0.355-0.067,2.195-0.471,3.544-1.797
			c1.368-1.343,1.779-3.186,1.848-3.542c0.13-0.679,0.229-1.714,0.229-2.407V35.458c1.442-0.419,2.484-1.77,2.484-3.301v-0.473
			C199.019,30.125,197.944,28.759,196.465,28.364z M109.407,48.663c-1.464,0.657-2.343,1.292-2.438,1.363
			c-0.459,0.338-1.106,0.854-1.459,1.188c-0.118,0.111-0.229,0.213-0.267,0.25c-0.418,0.309-0.688,0.73-1.179,1.495
			c-0.05,0.08-0.425,0.676-0.751,1.5c-0.444-0.481-0.86-1.01-1.24-1.58c-0.596-0.896-1.084-1.893-1.451-2.968
			c-0.35-1.02-0.526-2.105-0.526-3.227c0-1.352,0.18-2.653,0.535-3.868c0.383-1.312,0.834-2.516,1.343-3.574
			c0.513-1.067,1.037-1.985,1.555-2.727c0.316-0.453,0.528-0.75,0.654-0.925h5.001c-0.135,0.837-0.202,1.682-0.202,2.518
			c0,1.473,0.218,2.843,0.647,4.073c0.442,1.271,1.079,2.38,1.89,3.299c0.805,0.913,1.759,1.626,2.836,2.121
			C112.552,47.643,110.888,47.998,109.407,48.663z M118.348,37.019c-0.431,0.783-0.686,1.702-0.78,2.809
			c-0.011,0.138-0.036,0.202-0.015,0.215c-0.02,0-0.035-0.001-0.047-0.002c-0.001-0.002-0.003-0.005-0.004-0.009
			c-0.268-0.482-0.397-1.054-0.397-1.746c0-0.876,0.106-1.578,0.321-2.089c0.199-0.477,0.439-0.836,0.731-1.096
			c0.3-0.268,0.65-0.458,1.072-0.585c0.719-0.216,1.566-0.281,2.338-0.212c-0.562,0.175-1.096,0.446-1.594,0.809
			C119.324,35.589,118.777,36.231,118.348,37.019z M126.427,51.604c-1.873-1.253-3.354-2.094-4.408-2.502
			c-0.817-0.317-1.624-0.585-2.417-0.801c0.868-0.128,1.707-0.369,2.48-0.715c1.196-0.533,2.245-1.268,3.117-2.182
			c0.46-0.483,0.871-1.006,1.228-1.563V51.604z M143.143,44.834c0,0.104-0.006,0.188-0.014,0.252
			c-0.293-0.155-0.598-0.342-0.908-0.554c-0.502-0.34-1.033-0.646-1.579-0.909c-0.77-0.371-1.579-0.56-2.405-0.56
			c-0.498,0-0.998,0.076-1.495,0.226v-0.804c1.081-0.55,2.501-1.095,3.128-1.095c0.512,0,1.031,0.161,1.531,0.47
			c0.704,0.468,1.015,0.816,1.137,0.983c0.328,0.45,0.457,0.737,0.504,0.867c0.096,0.269,0.102,0.393,0.102,0.393V44.834z
			 M168.694,36.077c0.184-0.486,0.424-0.865,0.71-1.127c0.292-0.269,0.632-0.458,1.036-0.58c0.536-0.16,1.129-0.24,1.761-0.24
			c0.27,0,0.526,0.01,0.77,0.029c-0.622,0.172-1.209,0.461-1.753,0.86c-0.632,0.468-1.171,1.092-1.603,1.858
			c-0.452,0.809-0.572,1.524-0.597,1.723c-0.049,0.36-0.165,0.96-0.255,1.313c-0.019-0.021-0.039-0.05-0.062-0.086
			c-0.1-0.158-0.177-0.354-0.229-0.579c-0.07-0.304-0.107-0.629-0.107-0.963C168.366,37.384,168.477,36.641,168.694,36.077z
			 M176.851,46.126c-0.189,0.552-0.563,1.156-1.109,1.796c-0.607,0.713-1.345,1.375-2.19,1.966c-0.844,0.589-1.781,1.07-2.788,1.434
			c-1.956,0.703-4,0.681-5.726-0.063c-0.936-0.405-1.754-0.937-2.434-1.579c-0.678-0.643-1.199-1.354-1.59-2.175
			c-0.364-0.762-0.541-1.508-0.541-2.28c0-0.258,0.003-0.398,0.003-0.43c0.13-0.914-0.125-1.832-0.697-2.517
			c-0.6-0.717-1.492-1.127-2.452-1.127h-0.012l-0.299,0.015c-0.159,0.014-1.593,0.153-2.81,0.704
			c-1.169,0.528-2.164,1.245-2.958,2.13c-0.074,0.081-0.145,0.165-0.216,0.25c-0.224-2.951-1.472-5.632-3.717-7.979
			c-0.229-0.24-0.46-0.467-0.692-0.679h13.705c-0.12,0.724-0.181,1.469-0.181,2.225c0,1.508,0.218,2.894,0.646,4.12
			c0.44,1.265,1.076,2.384,1.89,3.328c0.849,0.986,1.861,1.749,3.009,2.267c1.14,0.518,2.387,0.778,3.708,0.778
			c1.462,0,2.819-0.292,4.035-0.869c1.158-0.547,2.181-1.281,3.038-2.186c0.354-0.375,0.679-0.774,0.97-1.197
			C177.299,44.744,177.102,45.436,176.851,46.126z"/>
	</g>
	<g>
		<g>
			<path fill="#FFFFFF" d="M86.125,27.868c-0.25-1.453-1.158-2.449-2.448-2.633l-0.317-0.031c-1.717-0.146-3.352,0.196-4.659,0.961
				c-0.863,0.505-1.415,1.146-1.724,1.589v-4.038v-2.925v-3.789c0-0.077-0.002-0.152-0.007-0.231v-6.423
				c0.078-1.384-0.681-2.561-1.931-2.944V6.854c0-0.211-0.022-0.343-0.048-0.496l-0.02-0.117c-0.146-0.91-0.931-1.756-1.826-1.972
				l-0.006,0.024V4.292l0.005-0.022c-0.001,0-0.05-0.01-0.05-0.01c-0.024-0.005-0.048-0.009-0.073-0.013
				c-0.222-0.04-0.49-0.079-0.778-0.079c-0.044,0-0.087,0.002-0.13,0.003c-0.322-0.017-0.667-0.027-1.027-0.027
				c-0.35,0-0.711,0.01-1.075,0.026h-0.179c-0.17,0-0.341,0.013-0.502,0.039L68.96,4.236c-0.628-0.595-1.318-1.149-2.051-1.651
				c-1.44-0.984-3.063-1.558-4.688-1.659c-0.135-0.007-0.272-0.012-0.408-0.012c-1.911,0-3.876,0.843-5.535,2.377
				c-1.053,0.973-1.972,2.232-2.728,3.748c0,0-0.099,0.2-0.131,0.262H12.591c-0.104,0-0.208,0.002-0.326,0.014
				c-0.7,0.071-1.244,0.306-1.82,0.78c-0.701,0.579-0.861,1.438-0.921,2.032c-0.016,0.155-0.013,0.308,0,0.457v6.419v6.414
				c-0.001,0.063-0.004,0.125-0.003,0.191c0.001,0.03,0.002,0.06,0.003,0.092v0.017c0,1.931,1.32,3.552,3.097,4.051
				c-1.147,0.036-2.411,0.535-3.186,1.28c-0.362,0.347-0.98,0.96-1.371,1.358c-0.012,0.012-1.189,1.206-2.174,2.6
				c-0.957,1.354-1.803,2.882-2.517,4.542c-0.704,1.637-1.282,3.404-1.717,5.251c-0.447,1.898-0.674,3.859-0.674,5.828
				c0,2.505,0.431,5.021,1.279,7.477c0.847,2.452,3.191,5.563,3.653,6.163c0.491,0.633,1.33,1.415,1.995,1.858
				c0.469,0.313,2.138,1.33,3.907,1.33c2.051,0,3.8-0.732,5.057-2.12c1.15-1.267,1.632-3.03,1.717-3.371
				c0.119-0.48,0.13-0.979,0.048-1.465c0.471,0.313,0.971,0.59,1.499,0.829c1.34,0.605,2.868,0.912,4.543,0.912
				c1.51,0,2.98-0.216,4.37-0.643c1.454-0.442,2.804-1.147,4.013-2.095c1.201-0.939,2.243-2.13,3.097-3.537
				c0.147-0.243,0.297-0.524,0.448-0.84c0.269,0.33,0.494,0.633,0.672,0.901c0.668,1.007,1.248,2.918,1.398,3.508
				c0.083,0.324,0.166,0.996,0.166,1.331v0.377c0,1.894,1.533,3.435,3.418,3.435c0.686,0,1.717-0.101,2.402-0.234
				c0.252-0.05,1.569-0.356,2.723-1.493c1.176-1.157,1.492-2.542,1.543-2.808c0.13-0.68,0.229-1.715,0.229-2.407v-1.407
				c0.634,1.337,1.396,2.516,2.274,3.516c1.114,1.272,2.366,2.308,3.724,3.078c0.175,0.099,0.351,0.193,0.528,0.285l-1.021,1.848
				c-0.869,1.575-0.387,3.605,1.164,4.659l2.462,1.17l0.448,0.149c1.163,0.26,1.354,0.272,1.591,0.272
				c0.102,0,0.73-0.05,1.354-0.114l1.955-0.346l0.207-0.049c1.583-0.447,2.731-1.965,2.731-3.609v-2.372
				c0.333-0.044,0.661-0.095,0.98-0.153c1.304-0.24,2.515-0.58,3.598-1.01c1.166-0.462,2.189-1.046,3.043-1.734
				c0.92-0.743,1.352-1.384,1.461-1.562c0.043-0.069,0.085-0.138,0.122-0.195v1.423c0,1.99,1.227,3.435,2.917,3.435
				c0.686,0,1.828-0.212,1.877-0.222c0.355-0.066,2.195-0.47,3.543-1.796c1.371-1.346,1.78-3.188,1.848-3.544
				c0.13-0.679,0.228-1.712,0.228-2.405V34.963c1.443-0.417,2.486-1.769,2.486-3.301v-0.474
				C88.679,29.63,87.604,28.263,86.125,27.868z M20.012,38.965c-1.219,0.521-2.302,1.283-3.217,2.263
				c-0.886,0.951-1.597,2.081-2.112,3.361c-0.523,1.294-0.789,2.75-0.789,4.329c0,1.505,0.234,2.939,0.696,4.265
				c0.18,0.52,0.394,1.019,0.642,1.495c-0.723-0.656-1.381-1.427-1.96-2.294c-0.595-0.895-1.083-1.893-1.45-2.967
				c-0.349-1.02-0.526-2.105-0.526-3.227c0-1.353,0.18-2.654,0.535-3.867c0.383-1.313,0.835-2.517,1.342-3.575
				c0.511-1.063,1.035-1.981,1.555-2.727c0.317-0.454,0.53-0.752,0.656-0.925h3.295c0.145,0,0.583,0.108,0.711,0.176
				c0.796,0.417,3.326,1.809,4.458,2.695c0.092,0.072,0.183,0.144,0.273,0.217C22.75,38.139,21.314,38.407,20.012,38.965z
				 M24.653,52.186c-0.162-0.015-0.435-0.049-0.737-0.103c-0.375-0.065-1.109-0.335-1.351-0.567
				c-0.146-0.152-0.55-1.091-0.744-2.024c-0.063-0.316-0.122-0.632-0.143-0.717c0.011-0.178,0.038-0.504,0.053-0.755
				c0.018-0.063,0.053-0.16,0.108-0.299c0.138-0.338,0.309-0.635,0.509-0.879c0.151-0.183,0.322-0.324,0.524-0.432l0.021-0.012
				c0.13,0.003,0.254,0.012,0.361,0.021c0.019,0.269,0.026,0.48,0.024,0.543c-0.036,0.668,0.105,1.818,0.111,1.868
				c0.032,0.26,0.249,1.617,1.33,2.834c0.127,0.144,0.261,0.281,0.403,0.414C24.933,52.127,24.767,52.163,24.653,52.186z
				 M38.844,43.784l-0.646-0.466c-0.142-0.897-0.743-4.265-2.085-6.399c-0.333-0.531-0.789-1.142-1.36-1.822h4.091V43.784z
				 M49.864,41.405c-0.258,0.381-0.493,0.776-0.705,1.182v-7.49h9.032c-0.723,0.321-1.437,0.672-2.136,1.047
				C53.283,37.659,51.2,39.43,49.864,41.405z M66.329,51.337c-0.438,0.126-0.811,0.214-1.035,0.241
				c-0.638,0.085-0.881,0.105-0.909,0.108c-0.496,0.022-1.072,0.042-1.281,0.042c-0.201,0-0.753-0.027-1.228-0.059
				c-0.299-0.021-1.21-0.116-1.818-0.3c-0.758-0.228-1.408-0.534-1.934-0.911c-0.458-0.329-0.801-0.701-1.048-1.139
				c-0.141-0.25-0.209-0.564-0.216-0.604c-0.036-0.287-0.059-0.562-0.07-0.739c0.046-0.124,0.116-0.288,0.199-0.457
				c0.011-0.023,1.193-2.337,3.026-3.395c1.389-0.801,4.532-1.664,6.313-2.114V51.337z"/>
			<path fill="#FFFFFF" d="M196.465,27.868c-0.251-1.453-1.158-2.449-2.449-2.632l-0.315-0.032c-1.72-0.145-3.354,0.194-4.659,0.96
				c-0.864,0.506-1.416,1.147-1.726,1.59h-6.303c-0.112-0.003-0.479-0.104-0.574-0.157c-0.418-0.248-4.179-2.426-7.517-2.426
				c-3.677,0-7.308,2.185-7.704,2.43c-0.092,0.053-0.433,0.149-0.531,0.153h-34.846c-0.151,0-0.611-0.11-0.746-0.179
				c-0.435-0.22-4.344-2.161-7.438-2.161c-3.473,0-7.018,1.952-7.409,2.174c-0.104,0.058-0.51,0.165-0.63,0.166h-12.07
				c-1.178,0-2.509,0.52-3.314,1.293c-0.362,0.347-0.98,0.96-1.372,1.36c-0.123,0.125-1.231,1.266-2.172,2.599
				c-0.957,1.354-1.803,2.881-2.517,4.54c-0.704,1.639-1.282,3.406-1.717,5.252c-0.448,1.896-0.675,3.856-0.675,5.828
				c0,2.505,0.431,5.021,1.28,7.477c0.845,2.45,3.19,5.563,3.653,6.163c0.491,0.633,1.33,1.415,1.995,1.858
				c0.333,0.223,2.089,1.33,3.906,1.33c1.674,0,3.164-0.496,4.336-1.439c0.594,0.591,1.301,1.074,2.109,1.442
				c1.008,0.453,1.962,0.561,2.142,0.578c0.116,0.011,0.229,0.015,0.339,0.015c0.978,0,1.882-0.408,2.479-1.122
				c0.521-0.62,0.769-1.414,0.697-2.189v-0.272c0-0.505,0.108-0.974,0.334-1.433c0.239-0.491,0.565-0.904,0.998-1.268
				c0.468-0.392,1.059-0.71,1.756-0.951c1.85-0.636,4.26-0.43,6.447,0.57c1.053,0.482,3.206,2.016,4.316,2.868
				c0.861,0.661,2.155,1.105,3.221,1.105c0.669,0,1.687-0.097,2.367-0.225c0.275-0.052,1.704-0.37,2.865-1.564
				c1.145-1.173,1.451-2.588,1.501-2.859c0.123-0.674,0.217-1.701,0.217-2.391v-5.327l3.556,2.473l0.443,0.157
				c0.557,0.165,1.44,0.357,2.112,0.357l0.154-0.004c0.511-0.023,1.332-0.177,1.92-0.318c0.217-0.051,1.345-0.343,2.355-1.056
				c0.632-0.448,1.188-0.959,1.659-1.525c0.072,0.743,0.222,1.483,0.446,2.215c0.336,1.096,0.864,1.955,0.968,2.119
				c0.382,0.595,0.694,1.027,0.914,1.269l0.276,0.332c0.424,0.514,1.008,1.075,1.786,1.717c0.767,0.633,1.729,1.269,2.861,1.891
				c1.209,0.664,2.635,1.176,4.243,1.521c1.338,0.274,2.65,0.483,3.899,0.62c1.28,0.139,2.491,0.21,3.602,0.21
				c3.42,0,6.426-0.638,8.933-1.893c2.47-1.237,4.538-2.852,6.146-4.798c1.323-1.604,2.364-3.384,3.104-5.304v8.607
				c0,1.99,1.227,3.435,2.917,3.435c0.686,0,1.827-0.212,1.877-0.222c0.355-0.066,2.195-0.47,3.544-1.796
				c1.368-1.343,1.779-3.186,1.848-3.542c0.13-0.68,0.229-1.714,0.229-2.407v-20.09c1.442-0.418,2.484-1.769,2.484-3.3v-0.474
				C199.019,29.63,197.944,28.263,196.465,27.868z M109.407,48.168c-1.464,0.656-2.343,1.292-2.438,1.362
				c-0.459,0.339-1.106,0.855-1.459,1.189c-0.118,0.111-0.229,0.213-0.267,0.249c-0.418,0.31-0.688,0.731-1.179,1.496
				c-0.05,0.079-0.425,0.676-0.751,1.5c-0.444-0.481-0.86-1.011-1.24-1.58c-0.596-0.896-1.084-1.893-1.451-2.968
				c-0.35-1.02-0.526-2.105-0.526-3.227c0-1.353,0.18-2.653,0.535-3.868c0.383-1.312,0.834-2.516,1.343-3.574
				c0.513-1.067,1.037-1.985,1.555-2.727c0.316-0.453,0.528-0.751,0.654-0.925h5.001c-0.135,0.836-0.202,1.682-0.202,2.518
				c0,1.472,0.218,2.842,0.647,4.072c0.442,1.271,1.079,2.381,1.89,3.3c0.805,0.913,1.759,1.626,2.836,2.121
				C112.552,47.146,110.888,47.503,109.407,48.168z M118.348,36.523c-0.431,0.783-0.686,1.702-0.78,2.808
				c-0.011,0.139-0.036,0.202-0.015,0.215c-0.02,0-0.035-0.001-0.047-0.002c-0.001-0.002-0.003-0.005-0.004-0.009
				c-0.268-0.481-0.397-1.053-0.397-1.745c0-0.876,0.106-1.578,0.321-2.089c0.199-0.478,0.439-0.837,0.731-1.097
				c0.3-0.267,0.65-0.458,1.072-0.584c0.719-0.216,1.566-0.282,2.338-0.212c-0.562,0.175-1.096,0.445-1.594,0.809
				C119.324,35.094,118.777,35.735,118.348,36.523z M126.427,51.108c-1.873-1.253-3.354-2.094-4.408-2.502
				c-0.817-0.317-1.624-0.585-2.417-0.802c0.868-0.127,1.707-0.368,2.48-0.715c1.196-0.532,2.245-1.267,3.117-2.181
				c0.46-0.483,0.871-1.006,1.228-1.563V51.108z M143.143,44.338c0,0.104-0.006,0.188-0.014,0.252
				c-0.293-0.155-0.598-0.341-0.908-0.553c-0.502-0.34-1.033-0.646-1.579-0.909c-0.77-0.372-1.579-0.56-2.405-0.56
				c-0.498,0-0.998,0.076-1.495,0.226v-0.805c1.081-0.549,2.501-1.094,3.128-1.094c0.512,0,1.031,0.161,1.531,0.47
				c0.704,0.467,1.015,0.816,1.137,0.982c0.328,0.45,0.457,0.738,0.504,0.867c0.096,0.27,0.102,0.394,0.102,0.394V44.338z
				 M168.694,35.581c0.184-0.485,0.424-0.864,0.71-1.127c0.292-0.268,0.632-0.458,1.036-0.579c0.536-0.16,1.129-0.241,1.761-0.241
				c0.27,0,0.526,0.01,0.77,0.03c-0.622,0.171-1.209,0.461-1.753,0.86c-0.632,0.468-1.171,1.092-1.603,1.858
				c-0.452,0.808-0.572,1.523-0.597,1.723c-0.049,0.359-0.165,0.96-0.255,1.313c-0.019-0.021-0.039-0.05-0.062-0.087
				c-0.1-0.157-0.177-0.354-0.229-0.578c-0.07-0.304-0.107-0.629-0.107-0.963C168.366,36.889,168.477,36.146,168.694,35.581z
				 M176.851,45.631c-0.189,0.552-0.563,1.155-1.109,1.796c-0.607,0.713-1.345,1.375-2.19,1.966
				c-0.844,0.589-1.781,1.07-2.788,1.434c-1.956,0.702-4,0.681-5.726-0.064c-0.936-0.405-1.754-0.936-2.434-1.579
				c-0.678-0.642-1.199-1.353-1.59-2.174c-0.364-0.762-0.541-1.509-0.541-2.28c0-0.258,0.003-0.399,0.003-0.43
				c0.13-0.914-0.125-1.832-0.697-2.518c-0.6-0.717-1.492-1.126-2.452-1.126h-0.012l-0.299,0.014
				c-0.159,0.015-1.593,0.153-2.81,0.704c-1.169,0.529-2.164,1.246-2.958,2.131c-0.074,0.081-0.145,0.164-0.216,0.25
				c-0.224-2.951-1.472-5.632-3.717-7.979c-0.229-0.239-0.46-0.466-0.692-0.678h13.705c-0.12,0.724-0.181,1.469-0.181,2.225
				c0,1.507,0.218,2.894,0.646,4.12c0.44,1.264,1.076,2.383,1.89,3.328c0.849,0.986,1.861,1.749,3.009,2.266
				c1.14,0.518,2.387,0.779,3.708,0.779c1.462,0,2.819-0.292,4.035-0.869c1.158-0.547,2.181-1.282,3.038-2.186
				c0.354-0.376,0.679-0.775,0.97-1.197C177.299,44.249,177.102,44.939,176.851,45.631z"/>
		</g>
		<g>
			<g>
				<linearGradient id="SVGID_1_" gradientUnits="userSpaceOnUse" x1="3.189" y1="64.123" x2="194.2463" y2="64.123">
					<stop  offset="0.0047" style="stop-color:#FF5B00"/>
					<stop  offset="1" style="stop-color:#70248A"/>
				</linearGradient>
				<path fill="url(#SVGID_1_)" d="M58.384,61.395l-2.046,3.703c1.268,1.169,2.565,1.755,3.895,1.755h0.195
					c1.393-0.034,2.625-0.261,3.696-0.684v-4.58c-1.428,0.487-2.578,0.73-3.454,0.73C59.568,62.319,58.806,62.011,58.384,61.395z"/>
				<linearGradient id="SVGID_2_" gradientUnits="userSpaceOnUse" x1="3.1899" y1="45.3125" x2="194.2432" y2="45.3125">
					<stop  offset="0.0047" style="stop-color:#FF5B00"/>
					<stop  offset="1" style="stop-color:#70248A"/>
				</linearGradient>
				<path fill="url(#SVGID_2_)" d="M83.741,27.722c-0.195-0.032-0.39-0.056-0.585-0.073c-0.196-0.016-0.389-0.025-0.584-0.025
					c-1.008,0-1.885,0.22-2.632,0.658c-0.748,0.438-1.251,1.08-1.511,1.926h-1.753h-0.927H49.192h-0.927H15.422h-0.976h-2.679
					L10.5,31.426c-0.877,0.778-1.747,1.778-2.607,2.996c-0.861,1.219-1.617,2.583-2.267,4.094c-0.649,1.512-1.177,3.127-1.583,4.848
					c-0.407,1.724-0.609,3.479-0.609,5.264c0,2.241,0.382,4.468,1.146,6.676c0.763,2.21,2.054,4.289,3.874,6.237
					c1.072,0.975,2.193,1.462,3.363,1.462c1.364,0,2.445-0.438,3.24-1.315c0.796-0.877,1.259-1.965,1.389-3.265
					c-0.942-0.423-1.868-1.039-2.777-1.853c-0.91-0.812-1.723-1.754-2.437-2.825c-0.715-1.073-1.292-2.25-1.73-3.533
					c-0.438-1.283-0.658-2.623-0.658-4.021c0-1.592,0.211-3.11,0.633-4.557c0.423-1.445,0.917-2.762,1.486-3.947
					c0.569-1.185,1.153-2.209,1.755-3.069c0.601-0.86,1.079-1.519,1.438-1.974h0.291h0.976h4.239
					c2.241,1.042,4.143,2.174,5.701,3.394c1.56,1.223,2.827,2.443,3.801,3.663c0.976,1.221,1.681,2.401,2.12,3.541
					c0.439,1.14,0.658,2.15,0.658,3.029l-0.048,0.878c-0.261,2.051-0.889,3.745-1.883,5.08c-0.995,1.334-2.617,2.132-4.867,2.393
					l-0.685,0.049c-1.435,0-2.633-0.464-3.595-1.39s-1.509-2.347-1.64-4.264v-0.438c0-0.616,0.114-1.209,0.344-1.778
					c0.23-0.567,0.523-1.072,0.884-1.511c0.359-0.439,0.785-0.788,1.277-1.049c0.491-0.259,0.998-0.39,1.522-0.39
					c0.752,0.067,1.374,0.35,1.865,0.854c0.49,0.503,0.704,1.145,0.639,1.924l-0.049,0.926c-0.065,0.943,0.219,1.771,0.853,2.484
					c0.633,0.716,1.405,1.154,2.315,1.316c0.941-1.525,1.412-3.102,1.412-4.727c0-0.584-0.163-1.227-0.486-1.924
					c-0.325-0.699-0.78-1.349-1.364-1.95c-0.585-0.601-1.267-1.104-2.047-1.51c-0.78-0.407-1.625-0.609-2.534-0.609
					c-1.008,0-1.966,0.194-2.876,0.584s-1.706,0.951-2.387,1.681c-0.682,0.731-1.227,1.601-1.632,2.608
					c-0.407,1.007-0.609,2.144-0.609,3.409c0,1.235,0.187,2.39,0.561,3.461c0.372,1.073,0.917,2.01,1.632,2.813
					c0.714,0.803,1.583,1.437,2.607,1.9c1.024,0.463,2.2,0.695,3.533,0.695c1.267,0,2.485-0.178,3.655-0.537
					c1.169-0.356,2.241-0.916,3.216-1.68c0.975-0.764,1.811-1.723,2.51-2.876c0.698-1.152,1.225-2.542,1.583-4.166
					c1.396,1.17,2.623,2.551,3.679,4.142c1.056,1.592,1.713,3.332,1.973,5.215v2.339h1.933c0.934,0,1.746-0.342,2.438-1.023
					c0.693-0.682,1.039-1.51,1.039-2.484V32.644h1.559h0.927h19.589v2.192c-2.145,0.228-4.167,0.627-6.068,1.193
					c-1.899,0.568-3.727,1.325-5.482,2.267c-2.437,1.333-4.215,2.826-5.335,4.484c-1.121,1.655-1.681,3.557-1.681,5.7
					c0,1.364,0.243,2.632,0.729,3.801c0.617,1.561,1.395,2.876,2.334,3.947c0.94,1.073,1.969,1.924,3.087,2.559
					c1.12,0.635,2.287,1.089,3.503,1.364c1.214,0.276,2.407,0.414,3.575,0.414c1.295,0,2.519-0.104,3.67-0.316
					c1.152-0.212,2.196-0.504,3.137-0.878c0.94-0.372,1.743-0.827,2.407-1.363c0.665-0.536,1.143-1.129,1.435-1.779h0.097V32.644
					h1.559h0.927h1.559v27.922h0.926c1.268,0,2.346-0.437,3.24-1.315c0.894-0.877,1.341-1.948,1.341-3.217v-23.39h2.485v-2.436
					h-2.485V27.722z M41.296,48.676c-1.787-1.754-3.574-3.037-5.359-3.85c-0.034-2.438-0.667-4.638-1.902-6.604
					c-1.234-1.965-2.923-3.826-5.068-5.579h12.329V48.676z M68.781,53.109c-1.236,0.487-2.292,0.79-3.168,0.902
					c-0.877,0.114-1.577,0.17-2.095,0.17H62.69c-1.203,0-2.315-0.153-3.338-0.463c-1.023-0.308-1.909-0.73-2.657-1.267
					c-0.747-0.535-1.332-1.178-1.753-1.925c-0.422-0.747-0.634-1.575-0.634-2.485l0.049-0.73c0.423-2.078,1.901-3.851,4.435-5.313
					c2.535-1.46,5.863-2.485,9.99-3.069V53.109z"/>
				<linearGradient id="SVGID_3_" gradientUnits="userSpaceOnUse" x1="3.1909" y1="45.6543" x2="194.243" y2="45.6543">
					<stop  offset="0.0047" style="stop-color:#FF5B00"/>
					<stop  offset="1" style="stop-color:#70248A"/>
				</linearGradient>
				<path fill="url(#SVGID_3_)" d="M194.081,30.208v-2.486c-0.195-0.032-0.391-0.056-0.586-0.073
					c-0.195-0.016-0.39-0.025-0.584-0.025c-1.007,0-1.885,0.22-2.632,0.658c-0.748,0.438-1.252,1.08-1.511,1.926h-1.725h-0.956
					h-6.059c-1.98-1.723-4.35-2.584-7.107-2.584c-3.084,0-5.502,0.861-7.254,2.584h-15.224h-0.953h-20.632
					c-2.207-1.561-4.607-2.34-7.202-2.34c-2.92,0-5.273,0.78-7.058,2.34h-10.378h-0.975h-2.68L99.3,31.426
					c-0.876,0.778-1.746,1.778-2.606,2.996c-0.861,1.219-1.617,2.583-2.266,4.094c-0.65,1.512-1.178,3.127-1.583,4.848
					c-0.407,1.724-0.609,3.479-0.609,5.264c0,2.241,0.382,4.468,1.146,6.676c0.762,2.21,2.053,4.289,3.874,6.237
					c1.072,0.975,2.192,1.462,3.362,1.462c1.365,0,2.445-0.438,3.241-1.315c0.67-0.737,1.09-1.635,1.287-2.673
					c0.057,0.363,0.138,0.718,0.249,1.064c0.227,0.714,0.56,1.341,0.999,1.878c0.438,0.534,0.998,0.956,1.681,1.266
					c0.682,0.309,1.462,0.464,2.34,0.464c-0.098-0.424-0.146-0.83-0.146-1.219c0-0.878,0.194-1.715,0.583-2.51
					c0.39-0.796,0.932-1.487,1.629-2.071s1.54-1.049,2.529-1.389c0.987-0.341,2.066-0.512,3.234-0.512
					c1.653,0,3.33,0.391,5.033,1.17c1.702,0.779,3.558,2.03,5.567,3.751h1.897c1.004,0,1.848-0.349,2.528-1.047
					c0.68-0.698,1.021-1.552,1.021-2.558V40.539c1.892-1.397,3.752-2.097,5.58-2.097c0.978,0,1.94,0.292,2.888,0.878
					c0.782,0.52,1.371,1.047,1.762,1.582c0.391,0.536,0.669,1.032,0.832,1.486c0.162,0.456,0.245,0.862,0.245,1.22
					c0,0.356,0,0.602,0,0.729c0,0.942-0.244,1.642-0.732,2.097c-0.486,0.454-1.039,0.682-1.655,0.682
					c-0.358,0-0.74-0.105-1.146-0.316s-0.813-0.456-1.219-0.732c-0.406-0.275-0.828-0.518-1.267-0.729s-0.886-0.316-1.34-0.316
					c-1.267,0-2.241,0.552-2.924,1.655c1.592,3.25,3.947,4.874,7.065,4.874l1.023-0.048c0.976-0.132,1.796-0.432,2.462-0.902
					c0.665-0.471,1.201-1.022,1.608-1.657c0.405-0.634,0.696-1.323,0.876-2.07c0.179-0.748,0.269-1.462,0.269-2.145
					c0-2.695-1.024-5.117-3.074-7.261c-0.684-0.715-1.352-1.25-2.001-1.608c-0.651-0.356-1.245-0.616-1.782-0.779
					c-0.536-0.162-1-0.252-1.391-0.27c-0.39-0.015-0.683-0.022-0.877-0.022c-0.749,0-1.578,0.105-2.489,0.316
					c-0.912,0.211-1.838,0.544-2.782,0.999l-0.585,0.292c-0.488-1.396-1.188-2.648-2.098-3.752h17.954h0.953h13.276
					c-0.39,0.715-0.674,1.461-0.853,2.242c-0.178,0.78-0.268,1.592-0.268,2.436c0,1.235,0.169,2.339,0.509,3.314
					c0.34,0.974,0.817,1.819,1.433,2.533c0.615,0.715,1.337,1.261,2.162,1.633c0.825,0.374,1.724,0.56,2.695,0.56
					c1.101,0,2.096-0.211,2.986-0.633c0.891-0.421,1.659-0.974,2.306-1.656c0.647-0.684,1.149-1.463,1.507-2.34
					c0.355-0.877,0.533-1.756,0.533-2.63c0-0.261,0.008-0.521,0.025-0.781c0.016-0.259-0.025-0.503-0.121-0.73
					c-0.098-0.227-0.274-0.407-0.531-0.536c-0.258-0.129-0.645-0.195-1.159-0.195c-0.354,0-0.732,0.042-1.135,0.124
					s-0.781,0.253-1.136,0.515s-0.659,0.622-0.918,1.08c-0.257,0.46-0.402,1.065-0.435,1.818c-0.097,0.754-0.373,1.36-0.827,1.818
					c-0.455,0.459-1.009,0.687-1.657,0.687c-0.521,0-0.958-0.114-1.314-0.342c-0.358-0.229-0.659-0.538-0.902-0.93
					c-0.244-0.391-0.422-0.832-0.537-1.321c-0.114-0.49-0.171-0.998-0.171-1.519c0-1.207,0.163-2.235,0.489-3.084
					c0.323-0.849,0.771-1.534,1.34-2.055c0.566-0.523,1.233-0.899,1.996-1.127c0.765-0.229,1.584-0.343,2.463-0.343
					c1.656,0,3.003,0.309,4.044,0.927c1.038,0.616,1.852,1.405,2.436,2.362c0.586,0.959,0.983,1.998,1.195,3.12
					c0.21,1.12,0.315,2.184,0.315,3.19c0,1.885-0.342,3.769-1.022,5.653c-0.293,0.845-0.813,1.705-1.56,2.582
					s-1.633,1.674-2.656,2.389c-1.023,0.714-2.144,1.29-3.361,1.73c-1.219,0.437-2.463,0.656-3.729,0.656
					c-1.332,0-2.599-0.26-3.8-0.779c-1.202-0.521-2.25-1.201-3.144-2.047c-0.894-0.845-1.6-1.811-2.119-2.899
					c-0.52-1.088-0.78-2.201-0.78-3.338c0-0.616,0.065-1.185,0.194-1.706c-1.137,0-2.137,0.195-2.996,0.586
					c-0.862,0.39-1.577,0.901-2.145,1.534c-0.569,0.633-0.998,1.381-1.29,2.242c-0.293,0.86-0.439,1.745-0.439,2.654
					c0,0.847,0.13,1.69,0.39,2.534c0.259,0.846,0.664,1.626,1.217,2.339c0-0.03,0.161,0.147,0.486,0.536
					c0.323,0.392,0.81,0.854,1.459,1.389c0.649,0.537,1.477,1.081,2.481,1.633c1.007,0.554,2.19,0.976,3.552,1.268
					c1.267,0.26,2.49,0.455,3.674,0.585c1.186,0.129,2.296,0.195,3.335,0.195c3.049,0,5.66-0.544,7.834-1.633
					c2.173-1.089,3.958-2.477,5.353-4.166c1.396-1.689,2.417-3.574,3.065-5.652c0.648-2.08,0.973-4.094,0.973-6.044
					c0-2.047-0.257-3.938-0.772-5.678c-0.514-1.736-1.238-3.305-2.171-4.701h3.869h0.956h1.529v27.922h0.927
					c1.268,0,2.347-0.437,3.239-1.315c0.894-0.877,1.342-1.948,1.342-3.217v-23.39h2.484v-2.436H194.081z M128.88,55.888
					c-2.858-2.436-5.442-4.101-7.747-4.994c-2.308-0.895-4.37-1.341-6.189-1.341c-1.755,0-3.266,0.284-4.531,0.853
					c-1.267,0.569-2.194,1.13-2.778,1.682l-0.877,0.828l-0.098,0.049c-0.554,0.715-0.958,1.494-1.219,2.339
					s-0.389,1.689-0.389,2.534c0,0.172,0.026,0.338,0.036,0.507c-0.887-0.419-1.761-1.007-2.62-1.774
					c-0.91-0.812-1.723-1.754-2.437-2.825c-0.715-1.073-1.292-2.25-1.729-3.533c-0.439-1.283-0.659-2.623-0.659-4.021
					c0-1.592,0.211-3.11,0.633-4.557c0.422-1.445,0.917-2.762,1.486-3.947c0.569-1.185,1.153-2.209,1.755-3.069
					c0.601-0.86,1.079-1.519,1.438-1.974h0.292h0.975h8.335c-0.424,0.78-0.716,1.593-0.879,2.437
					c-0.162,0.846-0.242,1.689-0.242,2.534c0,1.202,0.17,2.29,0.512,3.265c0.339,0.976,0.811,1.804,1.412,2.484
					c0.602,0.683,1.307,1.204,2.119,1.561c0.813,0.356,1.689,0.535,2.632,0.535c1.072,0,2.063-0.202,2.974-0.609
					c0.909-0.405,1.688-0.949,2.339-1.632c0.649-0.682,1.161-1.454,1.535-2.315c0.373-0.859,0.56-1.745,0.56-2.655
					c0-0.356-0.032-0.723-0.098-1.097c-0.065-0.372-0.211-0.721-0.438-1.047h-0.049c-0.033,0-0.139-0.024-0.317-0.074
					c-0.179-0.048-0.479-0.072-0.9-0.072c-0.358,0-0.741,0.042-1.146,0.123c-0.407,0.083-0.787,0.254-1.146,0.516
					c-0.356,0.262-0.666,0.631-0.926,1.106c-0.261,0.475-0.422,1.087-0.486,1.842c-0.065,0.754-0.334,1.352-0.805,1.793
					c-0.47,0.44-1.017,0.662-1.632,0.662c-1.008,0-1.747-0.424-2.217-1.271c-0.472-0.848-0.707-1.827-0.707-2.938
					c0-1.208,0.17-2.22,0.512-3.036c0.341-0.816,0.795-1.477,1.364-1.982c0.567-0.505,1.234-0.873,1.997-1.101
					c0.765-0.229,1.567-0.343,2.412-0.343c1.202,0,2.283,0.212,3.241,0.633c0.958,0.424,1.771,0.951,2.437,1.584
					c0.665,0.634,1.193,1.323,1.584,2.071c0.39,0.748,0.616,1.462,0.682,2.143V55.888z"/>
			</g>
		</g>
		<g>
			<g>
				<path fill="#0096D6" d="M44.393,18.551c1.221,0.342,2.753,1.17,3.684,3.156V10.533h-8.053c0.767,0.544,1.727,1.366,2.556,2.506
					C43.77,14.671,44.378,16.526,44.393,18.551z"/>
				<path d="M17.986,24.22c-0.405-0.574-1.032-1.077-1.814-1.452c-0.244-0.118-0.504-0.178-0.768-0.178
					c-0.384,0-0.766,0.126-1.104,0.371c-0.663,0.472-1.064,1.318-0.979,2.055c0.073,0.612,0.465,1.094,1.098,1.35
					c0.294,0.117,0.593,0.179,0.889,0.179c1.145,0,1.932-0.907,2.288-1.425c0.035,0.088,0.045,0.143,0.046,0.158
					c0.001,0.215,0.176,0.388,0.389,0.388c0.216,0,0.39-0.175,0.39-0.392C18.42,25.113,18.329,24.708,17.986,24.22z M14.691,25.739
					c-0.4-0.161-0.633-0.439-0.678-0.811c-0.058-0.487,0.231-1.08,0.689-1.411c0.148-0.104,0.401-0.243,0.711-0.243
					c0.149,0,0.307,0.031,0.477,0.114c0.646,0.311,1.072,0.674,1.349,0.999C17.006,24.835,16.112,26.311,14.691,25.739z"/>
				<g>
					<path fill="#EC1C24" d="M14.691,25.739c-0.4-0.161-0.633-0.439-0.678-0.811c-0.058-0.487,0.231-1.08,0.689-1.411
						c0.148-0.104,0.401-0.243,0.711-0.243c0.149,0,0.307,0.031,0.477,0.114c0.646,0.311,1.072,0.674,1.349,0.999
						C17.006,24.835,16.112,26.311,14.691,25.739z"/>
				</g>
				<path d="M62.501,24.22c-0.404-0.574-1.029-1.077-1.813-1.452c-0.244-0.118-0.504-0.178-0.768-0.178
					c-0.383,0-0.766,0.126-1.106,0.371c-0.663,0.472-1.063,1.318-0.976,2.055c0.075,0.612,0.462,1.094,1.094,1.35
					c0.295,0.117,0.594,0.179,0.891,0.179c1.145,0,1.932-0.907,2.288-1.425c0.033,0.088,0.045,0.143,0.045,0.158
					c0.001,0.215,0.176,0.388,0.392,0.388c0.212,0,0.389-0.175,0.389-0.392C62.938,25.113,62.847,24.708,62.501,24.22z
					 M59.208,25.739c-0.399-0.161-0.632-0.439-0.679-0.811c-0.059-0.487,0.232-1.08,0.691-1.411c0.148-0.104,0.401-0.243,0.71-0.243
					c0.148,0,0.308,0.031,0.479,0.114c0.642,0.311,1.07,0.674,1.347,0.999C61.523,24.835,60.628,26.311,59.208,25.739z"/>
				<g>
					<path fill="#88C440" d="M59.208,25.739c-0.399-0.161-0.632-0.439-0.679-0.811c-0.059-0.487,0.232-1.08,0.691-1.411
						c0.148-0.104,0.401-0.243,0.71-0.243c0.148,0,0.308,0.031,0.479,0.114c0.642,0.311,1.07,0.674,1.347,0.999
						C61.523,24.835,60.628,26.311,59.208,25.739z"/>
				</g>
				<path fill="#88C440" d="M31.02,11.406l-4.909,4.76c2.291-1.122,4.189-1.642,4.909-1.813V11.406z"/>
				<path fill="#FFFFFF" d="M20.94,11.406l-4.91,4.76c2.292-1.122,4.19-1.642,4.91-1.813V11.406z"/>
				<g>
					<path fill="#FFFFFF" d="M42.541,21.57c-0.368,0.204-0.911,0.199-1.319-0.266c-0.177-0.202-0.432-1.01-0.035-1.616
						c0.263-0.4,0.785-0.611,1.563-0.624c0.048-0.004,0.385-0.018,0.863,0.065C43.602,19.271,43.45,21.065,42.541,21.57z"/>
				</g>
				<path fill="#FFFFFF" d="M31.02,15.193c-1.099,0.28-3.778,1.088-6.693,2.888l6.693,5.949V15.193z"/>
				<path fill="#4D4D4D" d="M73.952,25.648c0.208,0,0.35,0.034,0.42,0.104c0.068,0.07,0.105,0.194,0.105,0.38
					c0,0.177-0.037,0.302-0.103,0.369c-0.069,0.07-0.205,0.103-0.411,0.103c-0.21,0-0.349-0.033-0.419-0.104
					c-0.072-0.071-0.105-0.197-0.105-0.381c0-0.18,0.033-0.298,0.104-0.37C73.606,25.682,73.746,25.648,73.952,25.648z"/>
				<path fill="#4D4D4D" d="M74.353,17.94c-0.11-0.258-0.267-0.474-0.464-0.641c-0.199-0.173-0.437-0.302-0.711-0.388
					c-0.275-0.086-0.576-0.129-0.902-0.129c-0.336,0-0.637,0.042-0.901,0.124c-0.27,0.082-0.497,0.205-0.683,0.367
					c-0.189,0.164-0.333,0.368-0.429,0.615c-0.098,0.241-0.147,0.528-0.147,0.859c0,0.343,0.055,0.64,0.163,0.896
					c0.111,0.254,0.265,0.468,0.466,0.637c0.198,0.171,0.437,0.299,0.71,0.384c0.275,0.085,0.575,0.126,0.902,0.126
					c0.339,0,0.641-0.039,0.906-0.12c0.268-0.08,0.496-0.201,0.683-0.364c0.187-0.165,0.329-0.367,0.428-0.613
					c0.097-0.245,0.147-0.534,0.147-0.862C74.521,18.492,74.466,18.196,74.353,17.94z M73.774,19.387
					c-0.083,0.158-0.199,0.287-0.343,0.38c-0.143,0.094-0.311,0.16-0.504,0.201c-0.194,0.042-0.4,0.062-0.62,0.062
					c-0.229,0-0.44-0.027-0.632-0.074c-0.193-0.05-0.361-0.126-0.502-0.229c-0.142-0.099-0.249-0.231-0.327-0.388
					c-0.077-0.156-0.116-0.344-0.116-0.565c0-0.233,0.044-0.432,0.127-0.59c0.086-0.159,0.2-0.287,0.346-0.379
					c0.146-0.091,0.315-0.159,0.509-0.198c0.191-0.04,0.397-0.062,0.614-0.062c0.231,0,0.442,0.023,0.634,0.073
					c0.195,0.046,0.362,0.122,0.502,0.226c0.138,0.101,0.248,0.228,0.325,0.388c0.076,0.16,0.117,0.346,0.117,0.562
					C73.902,19.031,73.859,19.228,73.774,19.387z"/>
				<path fill="#4D4D4D" d="M74.325,9.754c0.021,0,0.043,0.005,0.06,0.018c0.017,0.01,0.032,0.031,0.041,0.058
					c0.013,0.026,0.021,0.063,0.027,0.111c0.007,0.047,0.011,0.105,0.011,0.177c0,0.076-0.004,0.134-0.011,0.184
					c-0.005,0.047-0.014,0.084-0.027,0.111c-0.009,0.031-0.024,0.049-0.041,0.063c-0.016,0.01-0.038,0.016-0.06,0.016h-2.438
					c-0.168,0-0.321,0.015-0.462,0.046c-0.139,0.029-0.261,0.076-0.361,0.141c-0.099,0.066-0.18,0.149-0.231,0.25
					c-0.054,0.102-0.081,0.22-0.081,0.357c0,0.169,0.065,0.34,0.196,0.509c0.132,0.172,0.323,0.359,0.575,0.564h2.803
					c0.021,0,0.043,0.003,0.06,0.017c0.017,0.012,0.032,0.033,0.041,0.062c0.013,0.029,0.021,0.066,0.027,0.113
					c0.007,0.048,0.011,0.107,0.011,0.177c0,0.068-0.004,0.126-0.011,0.176c-0.005,0.051-0.014,0.088-0.027,0.117
					c-0.009,0.029-0.024,0.047-0.041,0.058c-0.016,0.008-0.038,0.015-0.06,0.015h-2.438c-0.168,0-0.321,0.016-0.462,0.049
					c-0.139,0.035-0.261,0.082-0.361,0.147c-0.099,0.065-0.18,0.146-0.231,0.248c-0.054,0.099-0.081,0.217-0.081,0.354
					c0,0.169,0.065,0.338,0.196,0.514c0.132,0.169,0.323,0.359,0.575,0.56h2.803c0.021,0,0.043,0.005,0.06,0.019
					c0.017,0.009,0.032,0.031,0.041,0.057c0.013,0.027,0.021,0.064,0.027,0.112c0.007,0.048,0.011,0.108,0.011,0.183
					c0,0.07-0.004,0.13-0.011,0.177c-0.005,0.048-0.014,0.085-0.027,0.115c-0.009,0.028-0.024,0.046-0.041,0.056
					c-0.016,0.01-0.038,0.016-0.06,0.016h-4.009c-0.024,0-0.044-0.006-0.059-0.015c-0.02-0.007-0.033-0.025-0.046-0.049
					c-0.014-0.031-0.022-0.065-0.027-0.105c-0.004-0.042-0.008-0.099-0.008-0.166c0-0.064,0.004-0.119,0.008-0.163
					c0.005-0.044,0.013-0.075,0.027-0.1c0.013-0.024,0.026-0.04,0.046-0.053c0.015-0.009,0.035-0.014,0.059-0.014h0.53
					c-0.251-0.225-0.438-0.445-0.554-0.657c-0.117-0.211-0.176-0.426-0.176-0.642c0-0.165,0.018-0.318,0.057-0.45
					c0.039-0.132,0.095-0.247,0.164-0.35c0.07-0.1,0.152-0.185,0.249-0.257c0.096-0.072,0.205-0.132,0.323-0.178
					c-0.145-0.135-0.268-0.262-0.369-0.38c-0.103-0.121-0.185-0.238-0.246-0.349c-0.063-0.111-0.109-0.219-0.135-0.324
					c-0.028-0.106-0.043-0.212-0.043-0.321c0-0.257,0.046-0.473,0.137-0.649c0.091-0.175,0.211-0.317,0.362-0.426
					c0.149-0.107,0.328-0.185,0.531-0.229c0.205-0.047,0.421-0.07,0.645-0.07H74.325z"/>
				<path fill="#4D4D4D" d="M73.716,21.412c0.049,0,0.092,0,0.128,0.002c0.036,0.004,0.069,0.009,0.095,0.017
					c0.023,0.007,0.047,0.016,0.067,0.025c0.02,0.012,0.046,0.036,0.084,0.071c0.038,0.038,0.083,0.103,0.137,0.192
					c0.056,0.09,0.105,0.189,0.148,0.302c0.043,0.111,0.077,0.231,0.104,0.362c0.027,0.13,0.042,0.263,0.042,0.404
					c0,0.287-0.048,0.545-0.143,0.767c-0.095,0.22-0.234,0.408-0.417,0.56c-0.183,0.149-0.408,0.264-0.674,0.342
					c-0.264,0.08-0.573,0.118-0.917,0.118c-0.396,0-0.736-0.047-1.019-0.144c-0.284-0.099-0.515-0.23-0.699-0.396
					c-0.183-0.171-0.315-0.365-0.401-0.594c-0.088-0.227-0.134-0.47-0.134-0.737c0-0.127,0.013-0.25,0.036-0.372
					c0.024-0.119,0.057-0.228,0.094-0.331c0.039-0.102,0.084-0.19,0.132-0.27c0.052-0.08,0.095-0.136,0.132-0.173
					c0.035-0.034,0.063-0.061,0.084-0.075c0.02-0.01,0.045-0.023,0.073-0.031c0.029-0.008,0.06-0.015,0.094-0.02
					c0.037-0.002,0.082-0.002,0.135-0.002c0.115,0,0.198,0.014,0.243,0.039c0.047,0.027,0.07,0.059,0.07,0.098
					c0,0.046-0.025,0.098-0.074,0.156c-0.048,0.056-0.102,0.129-0.162,0.221c-0.059,0.086-0.114,0.197-0.163,0.321
					c-0.049,0.128-0.072,0.277-0.072,0.449c0,0.353,0.135,0.623,0.405,0.812c0.272,0.19,0.666,0.285,1.184,0.285
					c0.258,0,0.483-0.027,0.678-0.074c0.193-0.051,0.358-0.123,0.489-0.218c0.132-0.096,0.229-0.211,0.292-0.349
					c0.063-0.139,0.096-0.296,0.096-0.475c0-0.168-0.027-0.319-0.08-0.445c-0.056-0.128-0.113-0.239-0.176-0.333
					c-0.066-0.093-0.123-0.172-0.174-0.236c-0.053-0.064-0.079-0.115-0.079-0.15c0-0.02,0.008-0.038,0.019-0.053
					c0.012-0.014,0.031-0.026,0.06-0.037c0.029-0.011,0.064-0.019,0.106-0.022C73.603,21.412,73.654,21.412,73.716,21.412z"/>
				<path fill="#F6921E" d="M20.94,15.197c-1.101,0.28-3.779,1.09-6.693,2.889l6.693,5.947V15.197z"/>
				<path d="M68.595,9.754h-1.061H57.101h-0.375h-0.533V9.126c0.238-0.568,1.956-4.409,5.004-4.92
					c0.226-0.039,0.454-0.056,0.684-0.056c1.918,0,4.005,1.313,6.205,3.904c0.073,0.088,0.184,0.139,0.299,0.139
					c0.089,0,0.18-0.034,0.251-0.095c0.164-0.139,0.183-0.387,0.045-0.549c-2.354-2.772-4.643-4.178-6.797-4.178
					c-0.273,0-0.547,0.023-0.816,0.068c-0.853,0.142-1.675,0.512-2.447,1.097c-0.615,0.468-1.199,1.075-1.735,1.805
					c-0.92,1.248-1.396,2.437-1.447,2.569c-0.018,0.045-0.026,0.091-0.026,0.139v0.705H28.977h-6.698H17.96h-2.672h-2.846
					c-0.215,0-0.39,0.173-0.39,0.391c0,0.213,0.174,0.388,0.39,0.388h2.846h2.672h2.764l-7.408,7.18
					c-0.036,0.037-0.066,0.078-0.088,0.125l-0.004,0.013l-0.006,0.017c-0.004,0.014-0.01,0.032-0.014,0.055
					c0,0.004-0.002,0.01-0.002,0.014v0.01c-0.002,0.01-0.004,0.026-0.004,0.046v0.006c0,0.015,0.002,0.027,0.002,0.035
					c0.002,0.007,0.002,0.017,0.004,0.023l0.001,0.007c0.003,0.022,0.007,0.034,0.012,0.046l0,0.001
					c0.002,0.014,0.006,0.021,0.011,0.034c0.006,0.014,0.012,0.024,0.018,0.035c0.002,0.004,0.006,0.016,0.012,0.023
					c0.005,0.007,0.012,0.014,0.016,0.018c0.003,0.006,0.006,0.009,0.01,0.016l-0.001-0.004l0.009,0.011l0.01,0.013
					c0.004,0.005,0.006,0.005,0.01,0.01c0.006,0.006,0.013,0.014,0.02,0.02l7.613,6.795v1.07c0,0.217,0.174,0.392,0.389,0.392
					c0.216,0,0.39-0.174,0.39-0.392V10.533h0.556h6.193H30.8l-7.408,7.18c-0.035,0.037-0.064,0.078-0.087,0.125l-0.007,0.013
					l-0.004,0.017c-0.004,0.014-0.01,0.032-0.015,0.055c0,0.004,0,0.01,0,0.014l-0.001,0.01c-0.002,0.01-0.004,0.026-0.004,0.046
					v0.006c0,0.015,0.002,0.027,0.003,0.035c0.001,0.007,0.002,0.017,0.002,0.023l0.002,0.007c0.003,0.022,0.007,0.034,0.012,0.046
					l0.001,0.001c0.002,0.014,0.004,0.021,0.011,0.034c0.004,0.014,0.011,0.024,0.018,0.035c0.002,0.004,0.005,0.016,0.011,0.023
					c0.004,0.007,0.011,0.014,0.014,0.018c0.005,0.006,0.006,0.009,0.011,0.016l-0.001-0.004l0.009,0.011l0.012,0.013
					c0.002,0.005,0.004,0.005,0.007,0.01c0.006,0.006,0.013,0.014,0.022,0.02l7.611,6.795v1.07c0,0.217,0.175,0.392,0.389,0.392
					c0.216,0,0.391-0.174,0.391-0.392V15.015c0.261-0.028,0.675-0.059,1.162-0.059c1.173,0,2.761,0.179,3.648,1.033
					c0.402,0.384,0.626,0.891,0.669,1.509c-0.322-0.268-0.699-0.509-1.125-0.714c-0.246-0.12-0.504-0.176-0.771-0.176
					c-0.382,0-0.765,0.125-1.103,0.369c-0.665,0.473-1.066,1.319-0.978,2.053c0.075,0.616,0.465,1.097,1.097,1.351
					c0.285,0.115,0.572,0.171,0.852,0.171c1.12,0,1.92-0.877,2.317-1.436c0.039,0.099,0.053,0.166,0.054,0.179
					c0.003,0.214,0.177,0.386,0.389,0.386c0.215,0,0.391-0.175,0.391-0.39c0-0.153-0.083-0.522-0.382-0.976
					c0.009-0.023,0.012-0.047,0.016-0.073c0.135-1.176-0.164-2.125-0.884-2.82c-1.078-1.033-2.867-1.251-4.18-1.251
					c-0.465,0-0.875,0.027-1.171,0.056v-3.695h6.748c0.307,0.156,1.521,0.825,2.688,2.089c1.523,1.655,2.323,3.591,2.375,5.766
					c-0.336-0.052-0.591-0.059-0.725-0.059c-0.039,0-0.077,0.001-0.098,0.002c-1.063,0.019-1.804,0.349-2.216,0.969
					c-0.628,0.945-0.419,2.408,0.482,2.901c0.69,0.382,1.569,0.195,1.832,0.048c1.073-0.593,1.384-2.206,1.471-2.917
					c1.569,0.482,3.413,1.854,3.72,5.592v1.229c0,0.217,0.172,0.392,0.387,0.392c0.216,0,0.393-0.174,0.393-0.392V10.533h2.752
					v15.619c0,0.217,0.177,0.392,0.392,0.392c0.214,0,0.389-0.174,0.389-0.392V10.533h3.023v15.619c0,0.217,0.176,0.392,0.388,0.392
					c0.218,0,0.392-0.174,0.392-0.392V10.533h0.533h0.375h8.297l-7.409,7.18c-0.033,0.037-0.065,0.078-0.088,0.125l-0.004,0.013
					l-0.006,0.017c-0.004,0.014-0.009,0.032-0.014,0.055c0,0.004,0,0.01-0.002,0.014v0.01c-0.002,0.01-0.003,0.026-0.003,0.046
					v0.006c0,0.015,0.001,0.027,0.001,0.035c0.002,0.007,0.002,0.017,0.004,0.023v0.007c0.004,0.022,0.009,0.034,0.014,0.046v0.001
					c0.002,0.014,0.006,0.021,0.01,0.034c0.007,0.014,0.014,0.024,0.019,0.035c0.002,0.004,0.007,0.016,0.012,0.023
					c0.004,0.007,0.01,0.014,0.015,0.018c0.004,0.006,0.006,0.009,0.011,0.016l-0.001-0.004l0.01,0.011l0.008,0.013
					c0.005,0.005,0.007,0.005,0.011,0.01c0.006,0.006,0.013,0.014,0.019,0.02l7.614,6.795v1.07c0,0.217,0.173,0.392,0.389,0.392
					c0.215,0,0.389-0.174,0.389-0.392V10.533h1.139h1.061h1.075c0.032-0.104,0.069-0.204,0.115-0.296
					c0.1-0.19,0.234-0.346,0.386-0.483H68.595z M20.944,24.03l-6.694-5.949c2.915-1.799,5.594-2.608,6.694-2.888V24.03z
					 M20.944,14.353c-0.721,0.171-2.619,0.691-4.909,1.813l4.909-4.76V14.353z M31.02,24.03l-6.693-5.949
					c2.915-1.799,5.594-2.608,6.693-2.888V24.03z M31.02,14.353c-0.72,0.171-2.618,0.691-4.909,1.813l4.909-4.76V14.353z
					 M34.713,19.71c-0.382-0.152-0.608-0.419-0.651-0.77c-0.056-0.468,0.223-1.035,0.66-1.35c0.143-0.101,0.384-0.234,0.681-0.234
					c0.14,0,0.294,0.031,0.455,0.107c0.614,0.297,1.02,0.64,1.286,0.951C36.822,18.971,35.944,20.208,34.713,19.71z M42.541,21.57
					c-0.368,0.204-0.911,0.199-1.319-0.266c-0.177-0.202-0.432-1.01-0.035-1.616c0.263-0.4,0.785-0.611,1.563-0.624
					c0.048-0.004,0.385-0.018,0.863,0.065C43.602,19.271,43.45,21.065,42.541,21.57z M48.077,21.707
					c-0.931-1.986-2.463-2.814-3.684-3.156c-0.015-2.025-0.623-3.88-1.813-5.512c-0.829-1.14-1.789-1.961-2.556-2.506h8.053V21.707z
					 M65.618,24.03l-6.694-5.949c2.915-1.799,5.594-2.608,6.694-2.888V24.03z M65.618,14.353c-0.722,0.171-2.618,0.691-4.911,1.813
					l4.911-4.76V14.353z"/>
				<path fill="#FFF100" d="M65.616,15.189c-1.1,0.282-3.779,1.09-6.692,2.889l6.692,5.948V15.189z"/>
				<path fill="#FFFFFF" d="M34.712,19.71c-0.384-0.152-0.607-0.419-0.65-0.77c-0.056-0.468,0.223-1.035,0.66-1.35
					c0.143-0.101,0.384-0.234,0.681-0.234c0.141,0,0.293,0.031,0.456,0.107c0.613,0.297,1.02,0.64,1.285,0.951
					C36.821,18.971,35.943,20.208,34.712,19.71z"/>
				<path fill="#FFFFFF" d="M65.616,11.411l-4.91,4.757c2.292-1.12,4.19-1.639,4.91-1.812V11.411z"/>
			</g>
			<g>
				<g>
					<path d="M71.197,8.16c-0.611,0-1.109-0.495-1.109-1.108c0-0.611,0.499-1.108,1.109-1.108c0.61,0,1.108,0.497,1.108,1.108
						C72.305,7.666,71.807,8.16,71.197,8.16z M71.197,6.022c-0.567,0-1.028,0.461-1.028,1.03c0,0.568,0.461,1.03,1.028,1.03
						c0.567,0,1.03-0.461,1.03-1.03C72.227,6.483,71.764,6.022,71.197,6.022z"/>
				</g>
				<g>
					<g>
						<path d="M70.777,6.371c0.093-0.021,0.223-0.03,0.351-0.03c0.193,0,0.318,0.035,0.41,0.115c0.068,0.063,0.111,0.16,0.111,0.268
							c0,0.188-0.12,0.312-0.267,0.362v0.005c0.108,0.039,0.173,0.138,0.207,0.285c0.047,0.197,0.08,0.334,0.108,0.388h-0.188
							c-0.022-0.039-0.053-0.161-0.093-0.337c-0.04-0.194-0.116-0.269-0.283-0.273h-0.172v0.61h-0.183V6.371z M70.959,7.014h0.186
							c0.195,0,0.319-0.106,0.319-0.268c0-0.183-0.133-0.265-0.324-0.266c-0.088,0-0.152,0.009-0.18,0.018V7.014z"/>
					</g>
				</g>
			</g>
		</g>
	</g>
</g>
</svg>
